<svg width="70" height="70" viewBox="0 0 70 70" fill="none" xmlns="http://www.w3.org/2000/svg">
<path d="M15.5157 20.207C15.4214 17.498 17.532 15 20.385 15H49.6187C52.4716 15 54.5822 17.498 54.4879 20.207C54.3973 22.8093 54.5149 26.1802 55.3633 28.9287C56.2144 31.6857 57.6495 33.4284 60 33.6523V36.1914C57.6495 36.4153 56.2144 38.158 55.3633 40.915C54.5149 43.6636 54.3973 47.0345 54.4879 49.6368C54.5822 52.3457 52.4716 54.8438 49.6187 54.8438H20.385C17.532 54.8438 15.4214 52.3457 15.5158 49.6368C15.6063 47.0345 15.4887 43.6636 14.6402 40.915C13.7893 38.158 12.3506 36.4153 10 36.1914V33.6523C12.3505 33.4284 13.7893 31.6857 14.6402 28.9287C15.4887 26.1802 15.6063 22.8093 15.5157 20.207Z" fill="#C0C0C0"/>
<path d="M36.0843 45.5134C40.7031 45.5134 43.4864 43.2519 43.4864 39.5217C43.4864 36.7021 41.5005 34.6607 38.5517 34.3376V34.2201C40.7182 33.8677 42.4183 31.8558 42.4183 29.6089C42.4183 26.4074 39.8907 24.322 36.0392 24.322H27.3731V45.5134H36.0843ZM30.7433 27.0095H35.2268C37.6641 27.0095 39.0481 28.0962 39.0481 30.0641C39.0481 32.1642 37.4384 33.339 34.5196 33.339H30.7433V27.0095ZM30.7433 42.826V35.8503H35.1966C38.3861 35.8503 40.0411 37.0251 40.0411 39.3161C40.0411 41.607 38.4313 42.826 35.3922 42.826H30.7433Z" fill="white"/>
<path d="M15.5157 20.207L15.016 20.2244V20.2244L15.5157 20.207ZM54.4879 20.207L54.9876 20.2244V20.2244L54.4879 20.207ZM55.3633 28.9287L54.8855 29.0762L54.8855 29.0762L55.3633 28.9287ZM60 33.6523H60.5V33.1977L60.0474 33.1546L60 33.6523ZM60 36.1914L60.0474 36.6892L60.5 36.646V36.1914H60ZM55.3633 40.915L54.8855 40.7676L54.8855 40.7676L55.3633 40.915ZM54.4879 49.6368L53.9882 49.6542L54.4879 49.6368ZM15.5158 49.6368L16.0155 49.6542L16.0155 49.6542L15.5158 49.6368ZM14.6402 40.915L14.1625 41.0625L14.1625 41.0625L14.6402 40.915ZM10 36.1914H9.5V36.646L9.95258 36.6892L10 36.1914ZM10 33.6523L9.95258 33.1546L9.5 33.1977V33.6523H10ZM14.6402 28.9287L14.1625 28.7812L14.1625 28.7812L14.6402 28.9287ZM38.5517 34.3376H38.0517V34.7858L38.4972 34.8346L38.5517 34.3376ZM38.5517 34.2201L38.4714 33.7266L38.0517 33.7949V34.2201H38.5517ZM27.3731 24.322V23.822H26.8731V24.322H27.3731ZM27.3731 45.5134H26.8731V46.0134H27.3731V45.5134ZM30.7433 27.0095V26.5095H30.2433V27.0095H30.7433ZM30.7433 33.339H30.2433V33.839H30.7433V33.339ZM30.7433 42.826H30.2433V43.326H30.7433V42.826ZM30.7433 35.8503V35.3503H30.2433V35.8503H30.7433ZM16.0154 20.1896C15.9298 17.7323 17.8452 15.5 20.385 15.5V14.5C17.2189 14.5 14.9129 17.2638 15.016 20.2244L16.0154 20.1896ZM20.385 15.5H49.6187V14.5H20.385V15.5ZM49.6187 15.5C52.1584 15.5 54.0738 17.7323 53.9882 20.1896L54.9876 20.2244C55.0907 17.2638 52.7847 14.5 49.6187 14.5V15.5ZM53.9882 20.1896C53.897 22.8086 54.0122 26.2466 54.8855 29.0762L55.841 28.7812C55.0177 26.1137 54.8975 22.81 54.9876 20.2244L53.9882 20.1896ZM54.8855 29.0762C55.7615 31.9139 57.3054 33.8979 59.9526 34.1501L60.0474 33.1546C57.9936 32.9589 56.6672 31.4576 55.841 28.7812L54.8855 29.0762ZM59.5 33.6523V36.1914H60.5V33.6523H59.5ZM59.9526 35.6937C57.3054 35.9458 55.7615 37.9299 54.8855 40.7676L55.841 41.0625C56.6672 38.3861 57.9936 36.8848 60.0474 36.6892L59.9526 35.6937ZM54.8855 40.7676C54.0122 43.5971 53.897 47.0352 53.9882 49.6542L54.9876 49.6194C54.8975 47.0338 55.0177 43.73 55.841 41.0625L54.8855 40.7676ZM53.9882 49.6542C54.0738 52.1114 52.1585 54.3438 49.6187 54.3438V55.3438C52.7847 55.3438 55.0907 52.58 54.9876 49.6194L53.9882 49.6542ZM49.6187 54.3438H20.385V55.3438H49.6187V54.3438ZM20.385 54.3438C17.8452 54.3438 15.9299 52.1114 16.0155 49.6542L15.0161 49.6194C14.9129 52.58 17.2189 55.3438 20.385 55.3438V54.3438ZM16.0155 49.6542C16.1066 47.0352 15.9914 43.5971 15.118 40.7676L14.1625 41.0625C14.9859 43.73 15.1061 47.0338 15.0161 49.6194L16.0155 49.6542ZM15.118 40.7676C14.242 37.9293 12.6943 35.9458 10.0474 35.6937L9.95258 36.6892C12.0069 36.8849 13.3366 38.3867 14.1625 41.0625L15.118 40.7676ZM10.5 36.1914V33.6523H9.5V36.1914H10.5ZM10.0474 34.1501C12.6942 33.8979 14.242 31.9144 15.118 29.0762L14.1625 28.7812C13.3366 31.4571 12.0068 32.9589 9.95258 33.1546L10.0474 34.1501ZM15.118 29.0762C15.9914 26.2466 16.1066 22.8086 16.0154 20.1896L15.016 20.2244C15.1061 22.81 14.9859 26.1137 14.1625 28.7812L15.118 29.0762ZM36.0843 46.0134C38.4689 46.0134 40.4436 45.43 41.8322 44.3048C43.2339 43.169 43.9864 41.5223 43.9864 39.5217H42.9864C42.9864 41.2512 42.3473 42.6003 41.2026 43.5279C40.0449 44.466 38.3185 45.0134 36.0843 45.0134V46.0134ZM43.9864 39.5217C43.9864 36.418 41.7786 34.1882 38.6061 33.8406L38.4972 34.8346C41.2224 35.1333 42.9864 36.9861 42.9864 39.5217H43.9864ZM39.0517 34.3376V34.2201H38.0517V34.3376H39.0517ZM38.6319 34.7136C41.0454 34.321 42.9183 32.0958 42.9183 29.6089H41.9183C41.9183 31.6157 40.3909 33.4143 38.4714 33.7266L38.6319 34.7136ZM42.9183 29.6089C42.9183 27.8654 42.2247 26.4002 40.9919 25.3797C39.7681 24.3668 38.0513 23.822 36.0392 23.822V24.822C37.8786 24.822 39.3513 25.3199 40.3542 26.15C41.3481 26.9727 41.9183 28.1509 41.9183 29.6089H42.9183ZM36.0392 23.822H27.3731V24.822H36.0392V23.822ZM26.8731 24.322V45.5134H27.8731V24.322H26.8731ZM27.3731 46.0134H36.0843V45.0134H27.3731V46.0134ZM30.7433 27.5095H35.2268V26.5095H30.7433V27.5095ZM35.2268 27.5095C36.3803 27.5095 37.2093 27.7678 37.7402 28.1901C38.2536 28.5986 38.5481 29.2079 38.5481 30.0641H39.5481C39.5481 28.9523 39.1506 28.0344 38.3627 27.4075C37.5922 26.7945 36.5105 26.5095 35.2268 26.5095V27.5095ZM38.5481 30.0641C38.5481 30.9695 38.2104 31.6309 37.585 32.0842C36.9358 32.5548 35.9231 32.839 34.5196 32.839V33.839C36.0349 33.839 37.2864 33.5358 38.1719 32.8939C39.081 32.2348 39.5481 31.2587 39.5481 30.0641H38.5481ZM34.5196 32.839H30.7433V33.839H34.5196V32.839ZM31.2433 33.339V27.0095H30.2433V33.339H31.2433ZM31.2433 42.826V35.8503H30.2433V42.826H31.2433ZM30.7433 36.3503H35.1966V35.3503H30.7433V36.3503ZM35.1966 36.3503C36.7439 36.3503 37.8335 36.6377 38.5244 37.131C39.1861 37.6035 39.5411 38.3069 39.5411 39.3161H40.5411C40.5411 38.0343 40.0686 37.0048 39.1055 36.3172C38.1715 35.6503 36.8388 35.3503 35.1966 35.3503V36.3503ZM39.5411 39.3161C39.5411 40.332 39.192 41.0498 38.5549 41.5312C37.8944 42.0303 36.857 42.326 35.3922 42.326V43.326C36.9666 43.326 38.2536 43.0122 39.1578 42.3291C40.0853 41.6282 40.5411 40.5912 40.5411 39.3161H39.5411ZM35.3922 42.326H30.7433V43.326H35.3922V42.326Z" fill="white"/>
</svg>
