<svg width="70" height="70" viewBox="0 0 70 70" fill="none" xmlns="http://www.w3.org/2000/svg">
<path fill-rule="evenodd" clip-rule="evenodd" d="M9.07531 6.72521C9.11673 7.12413 10.1848 19.1357 11.4489 33.4177C12.7128 47.6998 13.7729 59.4108 13.8046 59.4425C13.8362 59.4742 18.6203 60.8297 24.436 62.4547L35.0097 65.4093L45.5827 62.4555C51.3978 60.8311 56.1803 59.4773 56.2104 59.4473C56.2473 59.4104 60.9717 6.71906 61 6.02901C61.0006 6.013 49.3009 6 35.0005 6H9L9.07531 6.72521ZM51.434 17.4002C51.3974 17.6715 50.7667 24.6552 50.0325 32.9196C48.3784 51.5388 48.5024 50.2241 48.39 50.3237C48.338 50.3697 45.304 51.2304 41.6476 52.2363L34.9995 54.0652L28.3618 52.2337C24.7111 51.2265 21.6819 50.3662 21.6304 50.322C21.556 50.2583 20.6317 40.7514 20.6238 39.9686C20.6218 39.7801 20.8532 39.7656 23.8742 39.7656C26.3734 39.7656 27.138 39.7992 27.175 39.9106C27.2015 39.9904 27.3285 41.2243 27.4575 42.6528C27.5864 44.0812 27.7067 45.2611 27.7248 45.2749C27.8154 45.3437 34.8151 47.1917 34.9856 47.1918C35.1626 47.192 42.2065 45.34 42.2999 45.2688C42.3208 45.2527 42.541 43.3684 42.7892 41.0812C43.0374 38.794 43.265 36.7531 43.295 36.5456L43.3495 36.1685H31.8264H20.3033L20.2394 35.7334C20.0633 34.5326 19.6588 30.1309 19.719 30.0705C19.7572 30.0325 24.7404 29.9511 30.7931 29.8897C36.8456 29.8283 42.2711 29.7497 42.8498 29.7151L43.902 29.6522L44.104 26.6736C44.215 25.0354 44.3346 23.5453 44.3695 23.3623L44.4328 23.0297L31.72 23.0745L19.0073 23.1194L18.9454 22.5369C18.9114 22.2166 18.8297 21.0669 18.7638 19.982C18.6979 18.897 18.6141 17.7613 18.5777 17.4582L18.5113 16.9071H35.006H51.5007L51.434 17.4002Z" fill="#A4A4A4"/>
</svg>
