<svg width="70" height="70" viewBox="0 0 70 70" fill="none" xmlns="http://www.w3.org/2000/svg">
<path fill-rule="evenodd" clip-rule="evenodd" d="M14.8133 27.0432C14.7647 27.0741 14.7529 27.3061 14.7633 28.0292L14.777 28.9749L15.8226 28.9884C16.6257 28.9988 16.8776 28.9872 16.9085 28.9384C16.976 28.8321 16.9596 27.1305 16.8904 27.0613C16.821 26.9919 14.9202 26.9754 14.8133 27.0432ZM9.47816 29.5136C9.46467 29.5488 9.45972 29.9929 9.46726 30.5003L9.4809 31.423L10.4987 31.4366C11.2074 31.446 11.5375 31.4328 11.5854 31.393C11.6781 31.3161 11.6862 29.6013 11.5943 29.5095C11.5056 29.4207 9.51233 29.4246 9.47816 29.5136ZM12.1266 29.5126C12.1128 29.5483 12.1077 29.9929 12.1153 30.5003L12.1289 31.423L13.1032 31.4372C13.6391 31.445 14.1285 31.4388 14.191 31.4235L14.3045 31.3956L14.2909 30.4351L14.2773 29.4745L13.2144 29.461C12.3778 29.4504 12.1462 29.4613 12.1266 29.5126ZM14.7742 29.5136C14.7607 29.5488 14.7558 29.9929 14.7633 30.5003L14.777 31.423L15.7948 31.4366C16.5034 31.446 16.8336 31.4328 16.8815 31.393C16.9742 31.3161 16.9823 29.6013 16.8904 29.5095C16.8017 29.4207 14.8084 29.4246 14.7742 29.5136ZM21.6253 30.272C21.2203 30.8822 20.9992 31.6054 20.9981 32.3244C20.9972 32.846 21.0873 33.2512 21.2952 33.6611L21.442 33.9505L21.3071 34.0034C20.4047 34.357 20.7024 34.3452 12.6386 34.3456C4.7109 34.3459 5.2518 34.3235 5.07633 34.659C5.00968 34.7864 4.99394 34.9365 5.00189 35.3701C5.03341 37.0891 5.48812 38.7133 6.28393 39.9499C6.57012 40.3946 7.3307 41.1545 7.71747 41.3822C9.46631 42.4117 12.5994 42.7086 15.4542 42.1155C16.3692 41.9254 17.4106 41.5507 18.2373 41.1141C20.3621 39.9922 21.8179 38.3044 22.9762 35.6199L23.1918 35.1203L23.6309 35.0812C24.5731 34.9974 25.283 34.7012 25.8139 34.1703C26.1266 33.8576 26.4932 33.2504 26.4932 33.0453C26.4932 32.9302 26.1066 32.686 25.6938 32.5403C25.4044 32.4381 25.2755 32.4255 24.5092 32.424L23.6493 32.4223L23.5903 32.1725C23.4069 31.397 22.8507 30.6383 22.1253 30.1743C21.9747 30.0779 21.8414 29.9991 21.829 29.9991C21.8166 29.9991 21.7249 30.1219 21.6253 30.272ZM32.9573 31.5681C32.6392 31.71 32.6387 31.7131 32.6387 33.3827C32.6387 34.2147 32.6262 34.8955 32.6109 34.8955C32.5957 34.8955 32.4328 34.8047 32.2489 34.6938C31.8038 34.4254 31.3608 34.2914 30.8129 34.2596C30.1694 34.2223 29.7218 34.3104 29.1813 34.581C28.5895 34.8773 28.1003 35.3559 27.8102 35.9222C27.5181 36.4929 27.467 36.7216 27.4708 37.4436C27.4745 38.1483 27.5622 38.4883 27.8727 39.0007C28.2577 39.6361 28.9345 40.189 29.5807 40.3962C30.0436 40.5447 30.8917 40.58 31.359 40.4704C32.421 40.2212 33.3372 39.3476 33.671 38.2658C33.7559 37.9907 33.7628 37.7371 33.7628 34.9089V31.8497L33.613 31.7022C33.4324 31.5246 33.1737 31.4716 32.9573 31.5681ZM47.9023 31.5681C47.8199 31.6045 47.7075 31.6846 47.6525 31.7462C47.5546 31.8559 47.5523 31.9394 47.538 35.8875C47.5301 38.1036 47.5374 39.9936 47.5544 40.0876C47.6018 40.3503 47.8368 40.5413 48.1125 40.5413C48.3012 40.5413 48.3641 40.5142 48.5069 40.3714L48.6767 40.2015V39.0728V37.944L49.0303 37.7089C49.2797 37.543 49.4032 37.4878 49.4497 37.5212C49.4859 37.5472 50.0922 38.2146 50.797 39.0043C51.5017 39.7939 52.1209 40.4628 52.1729 40.4906C52.3305 40.575 52.6489 40.5502 52.7852 40.443C52.9521 40.3117 53.042 40.0805 53.0042 39.8794C52.9812 39.7567 52.6539 39.358 51.7014 38.2923C51.0019 37.5095 50.4285 36.8541 50.4274 36.836C50.4263 36.8179 50.9863 36.4396 51.6719 35.9953C52.7871 35.2727 52.9245 35.169 52.9769 35.0102C53.061 34.7555 52.9678 34.4713 52.7585 34.3437C52.4213 34.1381 52.3885 34.153 50.512 35.3701C49.5587 35.9884 48.7558 36.4943 48.7278 36.4943C48.6938 36.4943 48.6767 35.7214 48.6767 34.1821C48.6767 31.6183 48.6883 31.7102 48.347 31.5676C48.1448 31.4831 48.0946 31.4832 47.9023 31.5681ZM6.84217 31.93C6.77856 31.9937 6.8025 33.7709 6.86785 33.8362C6.96018 33.9286 8.87411 33.9203 8.95135 33.8273C8.99092 33.7795 9.00436 33.4751 8.99492 32.8405L8.98128 31.9227L7.92886 31.9092C7.35004 31.9018 6.861 31.9112 6.84217 31.93ZM9.48925 31.931C9.47091 31.9493 9.45592 32.3853 9.45592 32.8999C9.45592 33.707 9.46676 33.8397 9.53496 33.8659C9.57843 33.8826 10.0377 33.8962 10.5556 33.8962C11.345 33.8962 11.5099 33.8835 11.5758 33.8177C11.6409 33.7525 11.6543 33.596 11.6543 32.8974C11.6543 32.4345 11.6406 32.0202 11.624 31.9767C11.5977 31.9082 11.4563 31.8977 10.5581 31.8977C9.98853 31.8977 9.50753 31.9127 9.48925 31.931ZM12.1382 31.93C12.0746 31.9937 12.0986 33.7709 12.1639 33.8362C12.2562 33.9286 14.1702 33.9203 14.2474 33.8273C14.287 33.7795 14.3004 33.4751 14.291 32.8405L14.2773 31.9227L13.2249 31.9092C12.6461 31.9018 12.1571 31.9112 12.1382 31.93ZM14.7853 31.931C14.767 31.9493 14.752 32.3853 14.752 32.8999C14.752 33.707 14.7628 33.8397 14.831 33.8659C14.9682 33.9185 16.7506 33.8996 16.8537 33.8445C16.9436 33.7964 16.9503 33.7318 16.9503 32.9243C16.9503 32.4466 16.9367 32.0202 16.92 31.9767C16.8937 31.9082 16.7523 31.8977 15.8542 31.8977C15.2846 31.8977 14.8036 31.9127 14.7853 31.931ZM17.4343 31.93C17.4155 31.9489 17.4 32.3853 17.4 32.8999C17.4 33.707 17.4109 33.8397 17.4791 33.8659C17.6398 33.9275 19.4253 33.8992 19.515 33.8335C19.5915 33.7776 19.5993 33.6717 19.5871 32.8468L19.5734 31.9227L18.521 31.9092C17.9422 31.9018 17.4531 31.9112 17.4343 31.93ZM36.854 34.3205C36.246 34.4527 35.5697 34.8781 35.1486 35.3932C34.276 36.4607 34.1987 38.0303 34.9635 39.1497C35.3513 39.7172 35.9416 40.1794 36.5496 40.3917C36.9835 40.5432 37.8792 40.5824 38.3538 40.4707C39.2216 40.2663 40.0517 39.5955 40.4629 38.7662C40.9205 37.8431 40.8451 36.5683 40.2819 35.7101C40.0241 35.3171 39.478 34.8098 39.0905 34.6032C38.4709 34.273 37.5865 34.1612 36.854 34.3205ZM43.7405 34.347C43.1876 34.4918 42.8083 34.7171 42.3552 35.1696C41.6899 35.834 41.4235 36.4782 41.4269 37.4144C41.4304 38.3453 41.6734 38.9324 42.3307 39.5982C42.6818 39.9537 42.8304 40.0643 43.1808 40.2307C43.4144 40.3416 43.7247 40.4568 43.8703 40.4868C44.2501 40.5649 45.0089 40.5539 45.3562 40.4652C45.9171 40.322 46.6036 39.9155 46.7597 39.6341C46.9644 39.265 46.6717 38.7926 46.2385 38.7926C46.1504 38.7926 45.9582 38.8816 45.7488 39.0193C45.2917 39.3201 44.9735 39.4095 44.4572 39.3825C43.9332 39.355 43.4851 39.1562 43.1336 38.7954C42.0844 37.7182 42.5485 35.9265 43.9901 35.4886C44.6245 35.2959 45.2409 35.4131 45.8272 35.8378C46.2935 36.1756 46.8319 35.959 46.8264 35.4359C46.8239 35.2032 46.7384 35.0738 46.4384 34.8483C45.6986 34.2925 44.6748 34.1022 43.7405 34.347ZM55.5966 34.34C54.689 34.5648 53.8803 35.2304 53.4951 36.0696C53.2861 36.5248 53.2234 36.8403 53.2234 37.4355C53.2234 38.3642 53.4668 38.9395 54.1463 39.6169C54.6339 40.103 54.9885 40.3159 55.5538 40.462C55.9561 40.5659 56.7856 40.5659 57.1882 40.4621C57.8273 40.2972 58.5573 39.8063 58.6697 39.4659C58.7914 39.0971 58.5341 38.7426 58.1448 38.7426C57.9707 38.7426 57.876 38.7851 57.6062 38.9842C57.1675 39.308 56.8404 39.4069 56.2827 39.3843C55.9183 39.3695 55.791 39.3404 55.5096 39.2073C55.1043 39.0156 54.7442 38.6702 54.5565 38.2929L54.4197 38.0181L56.7819 37.9932C58.549 37.9745 59.1716 37.9523 59.2538 37.9053C59.4578 37.7887 59.5187 37.6422 59.5187 37.2681C59.5187 35.9001 58.4379 34.6122 57.0455 34.3208C56.5874 34.225 56.031 34.2324 55.5966 34.34ZM60.4063 34.3917L60.2431 34.5375V37.3936V40.2497L60.4063 40.3955C60.6361 40.6008 60.9493 40.6008 61.1791 40.3956L61.3423 40.2499L61.3673 38.5816L61.3923 36.9134L61.5789 36.536C62.034 35.6157 63.0268 35.1913 64.0194 35.4928C64.5555 35.6556 64.8141 35.5679 64.9641 35.1722C65.1493 34.6833 64.605 34.3104 63.6309 34.2588C62.8519 34.2176 62.2653 34.3628 61.6782 34.7423L61.3791 34.9356L61.3513 34.7282C61.29 34.271 60.7548 34.0804 60.4063 34.3917ZM31.4665 35.5922C32.269 35.9872 32.7413 36.8715 32.5947 37.7041C32.4777 38.3682 32.0585 38.9202 31.4533 39.2068C31.1391 39.3556 31.0771 39.3671 30.5902 39.3671C30.117 39.3671 30.0377 39.3534 29.7812 39.2275C29.3405 39.011 29.022 38.6936 28.8048 38.2541C28.627 37.8943 28.6167 37.8473 28.6167 37.3962C28.6167 36.9642 28.6315 36.8881 28.7729 36.5942C29.0472 36.0237 29.4099 35.6988 30.015 35.4817C30.415 35.3381 31.0485 35.3863 31.4665 35.5922ZM38.403 35.5606C38.7691 35.7282 39.2085 36.1474 39.3854 36.4977C39.8973 37.5117 39.4799 38.7181 38.4481 39.2068C38.1338 39.3556 38.072 39.3671 37.584 39.3671C37.0922 39.3671 37.0371 39.3567 36.7293 39.2052C36.3193 39.0034 35.9827 38.6519 35.7706 38.2041C35.6264 37.8996 35.6115 37.8239 35.6118 37.3936C35.6122 36.966 35.6277 36.8862 35.7687 36.588C36.032 36.031 36.4045 35.6989 37.0098 35.4817C37.3758 35.3504 38.024 35.3871 38.403 35.5606ZM57.1919 35.5859C57.5807 35.7679 57.931 36.0804 58.1248 36.4183C58.3884 36.8779 58.5281 36.844 56.371 36.844C54.2363 36.844 54.378 36.875 54.5932 36.4551C54.8201 36.0126 55.3865 35.5781 55.9087 35.4461C56.2609 35.3571 56.837 35.4199 57.1919 35.5859ZM62.5392 39.8645C62.2454 40.1582 62.5654 40.6235 62.9653 40.4841C63.0494 40.4548 63.1401 40.3897 63.167 40.3395C63.3857 39.9309 62.8659 39.5378 62.5392 39.8645ZM63.0795 39.949C63.2703 40.2058 63.0205 40.5399 62.7169 40.4341C62.5632 40.3805 62.4532 40.1877 62.5004 40.0547C62.6034 39.7645 62.9019 39.71 63.0795 39.949ZM62.6695 40.154C62.6721 40.3319 62.68 40.3481 62.7179 40.2539C62.7427 40.1921 62.7502 40.1077 62.7343 40.0666C62.7145 40.0147 62.7378 39.9917 62.8103 39.9917C62.8795 39.9917 62.9125 40.0213 62.9077 40.0791C62.8938 40.244 62.9162 40.3414 62.9679 40.3414C63.0026 40.3414 63.0034 40.3112 62.9705 40.2496C62.9434 40.1991 62.934 40.1091 62.9495 40.0497C62.974 39.9561 62.9571 39.9417 62.8221 39.9417C62.6717 39.9417 62.6664 39.949 62.6695 40.154Z" fill="#A4A4A4"/>
</svg>
