<svg width="70" height="70" viewBox="0 0 70 70" fill="none" xmlns="http://www.w3.org/2000/svg">
<path d="M27.4982 57.9913C31.6372 57.9913 34.9964 54.6321 34.9964 50.4931V42.9949H27.4982C23.3592 42.9949 20 46.3541 20 50.4931C20 54.6321 23.3592 57.9913 27.4982 57.9913Z" fill="#A4A4A4"/>
<path d="M20 35.4955C20 31.3565 23.3592 27.9974 27.4982 27.9974H34.9964V42.9949H27.4982C23.3592 42.9949 20 39.6346 20 35.4955Z" fill="#A4A4A4"/>
<path d="M20 20.4985C20 16.3593 23.3592 13 27.4982 13H34.9964V27.9974H27.4982C23.3592 27.9974 20 24.6377 20 20.4985Z" fill="#A4A4A4"/>
<path d="M34.9964 13H42.4964C46.6357 13 49.9952 16.3593 49.9952 20.4985C49.9952 24.6377 46.6357 27.997 42.4964 27.997L34.9964 27.9974V13Z" fill="#A4A4A4"/>
<path d="M49.9952 35.4955C49.9952 39.6346 46.6357 42.9937 42.4964 42.9937C38.357 42.9937 34.9975 39.6346 34.9975 35.4955C34.9975 31.3565 38.357 27.997 42.4964 27.997C46.6357 27.997 49.9952 31.3565 49.9952 35.4955Z" fill="#A4A4A4"/>
</svg>
