<svg width="70" height="70" viewBox="0 0 70 70" fill="none" xmlns="http://www.w3.org/2000/svg">
<path d="M39.9648 32.1083C38.8685 32.1083 38.0522 32.6466 38.0522 33.9422C38.0522 34.9183 38.5902 35.5959 39.9058 35.5959C41.0209 35.5959 41.7782 34.9389 41.7782 33.9019C41.7782 32.7266 41.1005 32.1083 39.9648 32.1083ZM37.7723 41.2558C37.5129 41.5742 37.2544 41.9125 37.2544 42.3117C37.2544 43.1082 38.27 43.3479 39.6652 43.3479C40.8211 43.3479 42.3954 43.2669 42.3954 42.1923C42.3954 41.5536 41.638 41.5141 40.6809 41.4541L37.7723 41.2558ZM43.6705 32.1685C44.0286 32.627 44.4078 33.2648 44.4078 34.1814C44.4078 36.3932 42.6741 37.6884 40.1639 37.6884C39.5256 37.6884 38.9477 37.6088 38.5894 37.5094L37.9316 38.5653L39.8842 38.6846C43.3318 38.9043 45.3637 39.0041 45.3637 41.6534C45.3637 43.9456 43.3516 45.2401 39.8842 45.2401C36.2775 45.2401 34.9027 44.3234 34.9027 42.7494C34.9027 41.8523 35.3013 41.3751 35.9987 40.7165C35.3409 40.4385 35.122 39.9406 35.122 39.4023C35.122 38.9636 35.3409 38.5652 35.7001 38.1863C36.0587 37.8081 36.4571 37.4289 36.9354 36.9907C35.9591 36.5125 35.2216 35.4763 35.2216 34.0015C35.2216 31.7103 36.7362 30.1366 39.7844 30.1366C40.6414 30.1366 41.1598 30.2155 41.6181 30.3358H45.5041V32.0292L43.6705 32.1685Z" fill="#A4A4A4"/>
<path d="M49.0116 28.5474C47.8755 28.5474 47.2182 27.8893 47.2182 26.753C47.2182 25.6182 47.8755 25 49.0116 25C50.1674 25 50.825 25.6182 50.825 26.753C50.825 27.8892 50.1674 28.5474 49.0116 28.5474ZM46.4406 40.5224V38.949L47.4572 38.8099C47.7363 38.7695 47.7759 38.7101 47.7759 38.4105V32.5522C47.7759 32.3335 47.7164 32.1934 47.5165 32.1341L46.4406 31.7551L46.6597 30.1416H50.7849V38.4107C50.7849 38.7301 50.8042 38.7696 51.1039 38.81L52.1202 38.9491V40.5225H46.4405" fill="#A4A4A4"/>
<path d="M60 39.7501C59.1428 40.1681 57.8877 40.5468 56.7513 40.5468C54.3801 40.5468 53.4837 39.5912 53.4837 37.3385V32.1182C53.4837 31.9989 53.4837 31.9188 53.3237 31.9188H51.9291V30.1454C53.6831 29.9456 54.3801 29.0687 54.5993 26.8967H56.4926V29.7273C56.4926 29.8662 56.4926 29.9264 56.6521 29.9264H59.4616V31.9188H56.4926V36.681C56.4926 37.8569 56.7719 38.3148 57.8474 38.3148C58.406 38.3148 58.9832 38.1757 59.4616 37.9962L60 39.7501Z" fill="#A4A4A4"/>
<path d="M30.4748 34.5208L21.363 25.4101C20.8387 24.8854 19.9877 24.8854 19.4627 25.4101L17.5708 27.3023L19.9707 29.7022C20.5286 29.5138 21.1681 29.6401 21.6126 30.0847C22.0594 30.5321 22.1848 31.177 21.9917 31.7368L24.3048 34.0499C24.8644 33.857 25.5101 33.9816 25.9569 34.4293C26.5816 35.0538 26.5816 36.0658 25.9569 36.6905C25.3321 37.3154 24.3201 37.3154 23.6949 36.6905C23.2252 36.2204 23.109 35.5302 23.3469 34.9514L21.1897 32.7942L21.1895 38.4709C21.3419 38.5463 21.4856 38.6469 21.6125 38.7733C22.237 39.3977 22.237 40.4095 21.6125 41.0351C20.9878 41.6595 19.9753 41.6595 19.3513 41.0351C18.7266 40.4096 18.7266 39.3978 19.3513 38.7733C19.5056 38.6192 19.6843 38.5025 19.8748 38.4244V32.695C19.6842 32.6171 19.5058 32.5014 19.3512 32.346C18.878 31.8733 18.7641 31.1789 19.0067 30.5979L16.6409 28.2317L10.3937 34.4787C9.86877 35.0039 9.86877 35.8549 10.3937 36.3797L19.5049 45.4904C20.0295 46.0151 20.8802 46.0151 21.4055 45.4904L30.4747 36.4227C30.9994 35.8977 30.9994 35.0464 30.4747 34.5216" fill="#A4A4A4"/>
</svg>
