<svg width="70" height="70" viewBox="0 0 70 70" fill="none" xmlns="http://www.w3.org/2000/svg">
<path fill-rule="evenodd" clip-rule="evenodd" d="M9 5.02904C9.07584 6.90816 12.7261 56.9706 12.7916 57.0284C12.8456 57.0762 17.9334 58.7695 24.0978 60.7914L35.3059 64.4677L46.514 60.7715C56.8179 57.3738 57.7288 57.0528 57.8058 56.7932C57.8688 56.5809 61.5161 5.52974 61.4999 5.08711C61.4982 5.03914 49.6848 5 35.2478 5C20.8109 5 8.99942 5.01301 9 5.02904ZM52.1472 14.0303C52.1186 14.2061 52.0123 15.6564 51.9112 17.2534C51.81 18.8504 51.703 20.2746 51.6736 20.4184L51.62 20.6797H38.715H25.81L25.8773 21.2314C25.9143 21.5349 26.0623 23.5471 26.2061 25.703L26.4675 29.6229H38.7557C45.5141 29.6229 51.0434 29.6361 51.0431 29.652C51.0355 30.0687 49.5355 50.5643 49.5111 50.5846C49.4916 50.6008 46.2917 51.6853 42.4 52.9946L35.3244 55.3753L28.1721 52.9943C24.2385 51.6849 21.0104 50.6067 20.9987 50.5984C20.9777 50.5837 20.4973 43.9781 20.4973 43.7034C20.4973 43.5934 21.298 43.5605 23.9712 43.5605H27.4451L27.5255 44.5246L27.6058 45.4887L31.4278 46.7588L35.2498 48.0287L39.0525 46.7664C41.1441 46.0721 42.8713 45.4908 42.8906 45.4745C42.9367 45.4361 43.4893 37.7277 43.4921 37.0853L43.4942 36.5917H31.7054H19.9166V36.2449C19.9166 36.0542 19.5768 31.06 19.1616 25.1469C18.7464 19.2337 18.4067 14.2416 18.4067 14.0533V13.7109H35.303H52.1993L52.1472 14.0303Z" fill="#A4A4A4"/>
</svg>
