<svg width="70" height="70" viewBox="0 0 70 70" fill="none" xmlns="http://www.w3.org/2000/svg">
<path d="M41.9408 30.1744H40.1817C40.0839 30.1744 39.987 30.2525 39.9662 30.3482L38.7172 36.1288C38.6964 36.2241 38.5995 36.3021 38.5022 36.3021H37.2568C36.0244 36.3021 36.167 35.4502 36.4241 34.2828L36.4319 34.2474L36.5813 33.4511L36.6458 33.1233L37.2141 30.3482C37.2339 30.2525 37.1699 30.1739 37.072 30.1739H35.2661C35.2163 30.1756 35.1684 30.1935 35.1298 30.2249C35.0911 30.2562 35.0637 30.2994 35.0517 30.3477L34.2278 34.2063C33.7802 36.2485 33.8989 38.196 36.3304 38.2569H40.2166C40.3144 38.2569 40.4107 38.1788 40.4315 38.0831L42.0772 30.3462C42.098 30.2504 42.034 30.1723 41.9366 30.1723L41.9408 30.1744ZM48.9564 36.3224C49.0542 36.3224 49.1125 36.4005 49.0985 36.4963L48.9278 37.3316L48.9564 36.3224Z" fill="#A4A4A4"/>
<path d="M44.2552 35.2467C44.2537 35.1551 44.3577 34.9979 44.4556 34.9979L44.236 34.9942C44.1319 35.9904 44.2552 35.2467 44.2552 35.2467ZM48.9564 36.3276C49.0542 36.3276 49.1125 36.4057 49.0985 36.5015L48.9043 37.4674L48.9564 36.3276Z" fill="#A4A4A4"/>
<path d="M19.8178 35.2675L20.091 34.0559L19.7787 35.4403L19.7423 35.6141L19.8183 35.2664L19.8178 35.2675ZM23.0903 30.1541H21.1579C21.108 30.1561 21.06 30.1739 21.0209 30.2051C20.9819 30.2363 20.9538 30.2792 20.9409 30.3274L20.5745 31.9408C20.5683 31.9617 20.5673 31.9837 20.5715 32.0051C20.5757 32.0265 20.585 32.0465 20.5985 32.0635C20.6121 32.0805 20.6296 32.094 20.6495 32.1028C20.6695 32.1116 20.6912 32.1155 20.7129 32.1141H22.6604C22.7583 32.1141 22.8551 32.036 22.8759 31.9408L23.2298 30.3238C23.2506 30.2285 23.1882 30.1505 23.0893 30.1505L23.0903 30.1541ZM17.0604 41.5321L18.654 41.5446C18.1836 41.5446 17.4071 41.5362 17.0604 41.5321Z" fill="#A4A4A4"/>
<path d="M22.535 32.6705H20.5922C20.5422 32.6724 20.4943 32.6903 20.4552 32.7215C20.4162 32.7527 20.3881 32.7955 20.3752 32.8438L19.8287 35.267L19.7527 35.6146L19.2323 38.0883C19.2065 38.2037 19.1752 38.3178 19.1386 38.4302C19.1386 38.4302 18.7743 39.5127 18.1633 39.5008L17.5569 39.4893C17.5072 39.4907 17.4592 39.5079 17.4199 39.5384C17.3806 39.5689 17.3521 39.6112 17.3384 39.659L16.9345 41.3567C16.9281 41.3774 16.9268 41.3994 16.9308 41.4208C16.9347 41.4421 16.9437 41.4622 16.957 41.4794C16.9703 41.4965 16.9876 41.5102 17.0073 41.5193C17.027 41.5284 17.0486 41.5326 17.0703 41.5315L18.6645 41.5446C20.1925 41.5446 20.9976 40.6978 21.5144 38.2621L22.6854 32.8495C22.7062 32.7543 22.6427 32.6762 22.5449 32.6762L22.535 32.6705ZM50.2018 38.2585C50.104 38.2585 50.0457 38.1804 50.0613 38.0846L51.5274 31.2221L50.2018 38.2585Z" fill="#A4A4A4"/>
<path d="M50.0831 38.1721C50.0712 38.1242 50.0779 38.0071 50.0988 37.9119L50.7941 34.6539L50.0613 38.0846C50.0405 38.1804 50.104 38.2585 50.2018 38.2585L50.3798 38.259C50.282 38.259 50.0946 38.22 50.0831 38.1721ZM52.1233 38.22C52.0702 38.2408 51.9463 38.259 51.8485 38.259H52.0265C52.0762 38.257 52.1238 38.239 52.1623 38.2075C52.2008 38.1761 52.228 38.1329 52.2399 38.0846L52.2753 37.9108C52.256 38.0066 52.1712 38.1986 52.1191 38.22H52.1233ZM58.3166 31.6821L58.3972 32.0152C58.4196 32.1105 58.3577 32.188 58.2604 32.1885" fill="#A4A4A4"/>
<path d="M52.7973 35.3284L52.8691 34.9828L53.1486 33.6739L52.8316 35.1556L52.7973 35.3284ZM51.5508 31.1097L50.7941 34.6539L51.5274 31.2221L51.5508 31.1097Z" fill="#A4A4A4"/>
<path d="M58.3972 32.0152L58.3166 31.6821L58.1969 31.1617C58.0387 30.5476 57.5744 30.1921 56.5658 30.1921L51.9234 30.189C51.8737 30.1907 51.8258 30.2086 51.7871 30.24C51.7484 30.2713 51.721 30.3145 51.709 30.3628L51.6372 30.7027L51.5331 31.2163L50.105 37.9056C50.0842 38.0014 50.0774 38.1138 50.0894 38.1658C50.1014 38.2179 50.2887 38.2527 50.386 38.2527H51.8537C51.9515 38.2527 52.0749 38.2351 52.1285 38.2137C52.1821 38.1924 52.2607 38.0055 52.2846 37.9046L52.8415 35.1493L53.4374 32.3577C53.4582 32.2624 53.5545 32.1849 53.6518 32.1844L58.2697 32.1823C58.3671 32.1823 58.429 32.1042 58.4066 32.009L58.3972 32.0152ZM64.3418 28.9998L63.9863 29.0013H62.5082C62.4541 29.0046 62.4013 29.0193 62.3534 29.0446C62.3055 29.0699 62.2635 29.1052 62.2303 29.1481L58.9619 33.9362C58.9068 34.0169 58.8438 34.0049 58.8214 33.9102L58.581 32.8552C58.568 32.807 58.54 32.7641 58.5009 32.7329C58.4619 32.7017 58.4139 32.6839 58.3639 32.6819H56.2629C56.1651 32.6819 56.1068 32.7584 56.1338 32.8526L57.0706 36.1512C57.0977 36.2449 57.0993 36.3994 57.0758 36.4947L56.6595 38.0909C56.6524 38.1114 56.6505 38.1333 56.654 38.1546C56.6576 38.176 56.6664 38.1962 56.6796 38.2133C56.6929 38.2304 56.7103 38.2439 56.7301 38.2526C56.75 38.2613 56.7716 38.265 56.7932 38.2632H58.875C58.9729 38.2632 59.0728 38.1851 59.0967 38.0914L59.5131 36.4952C59.5457 36.3828 59.5967 36.2766 59.664 36.1809L64.9705 29.1382C65.0293 29.0601 64.9975 28.9967 64.8997 28.9977L64.3428 29.0013L64.3418 28.9998ZM47.648 33.1311C47.6355 33.2351 47.5377 33.3132 47.4398 33.3132H44.7751C44.683 33.3132 44.6362 33.2508 44.6502 33.1727L44.6523 33.1586L44.6643 33.1134C44.9245 32.4368 45.4371 31.9928 46.4109 31.9928C47.5075 31.9928 47.7214 32.5289 47.6469 33.1311H47.648ZM46.8673 30.0563C43.448 30.0563 42.6377 32.1318 42.1833 34.2266C41.7285 36.362 41.768 38.3589 45.306 38.3589H45.867L46.299 38.3574L48.5504 38.3438C48.5998 38.3415 48.6472 38.3233 48.6853 38.2919C48.7235 38.2605 48.7505 38.2175 48.7623 38.1695L49.1042 36.4978C49.124 36.402 49.06 36.324 48.9621 36.324H45.7817C44.517 36.324 44.1407 35.9878 44.2792 34.9995H49.3639C49.4472 34.9979 49.5226 34.9474 49.5523 34.8683C49.5575 34.8542 49.5627 34.8392 49.5648 34.8241C50.3194 31.9772 50.1029 30.0584 46.8689 30.0584L46.8673 30.0563ZM30.7044 33.1201L30.6565 33.2914L29.8884 36.0122C29.8724 36.0602 29.8423 36.1022 29.8019 36.1327C29.7616 36.1632 29.713 36.1807 29.6625 36.1829H27.6301C26.0886 36.1829 25.7134 34.9771 26.0886 33.1987C26.4633 31.3798 27.1997 30.2488 28.7168 30.1343C30.7903 29.9782 31.204 31.437 30.7044 33.1201ZM32.0982 36.0789C32.0982 36.0789 33.0558 33.7525 33.2744 32.4082C33.571 30.609 32.6706 28 29.1915 28C25.7321 28 24.2301 30.4908 23.6571 33.2044C23.0846 35.9316 23.8351 38.3235 27.2742 38.3048L32.5234 38.2855C32.5737 38.2831 32.622 38.2652 32.6618 38.2343C32.7016 38.2034 32.7309 38.1609 32.7456 38.1127L33.188 36.4276C33.1951 36.4071 33.1971 36.3853 33.1937 36.3639C33.1902 36.3426 33.1815 36.3224 33.1684 36.3052C33.1552 36.2881 33.138 36.2745 33.1182 36.2657C33.0985 36.2569 33.0768 36.2531 33.0553 36.2548H32.2085C32.1252 36.2542 32.0784 36.2006 32.0877 36.1299C32.0893 36.1168 32.093 36.1038 32.0982 36.0903V36.0789Z" fill="#A4A4A4"/>
<path d="M49.2218 34.5217C49.2218 34.5862 49.1698 34.6383 49.1052 34.6383C49.0407 34.6383 48.9887 34.5862 48.9887 34.5217C48.9887 34.4571 49.0407 34.4051 49.1052 34.4051C49.1698 34.4051 49.2218 34.4571 49.2218 34.5217Z" fill="#A4A4A4"/>
<path d="M5.68511 31.4964C4.73009 32.8693 4.84875 34.6555 5.57842 36.1137L5.63202 36.2178L5.66637 36.2834L5.68719 36.3214L5.72518 36.3891L5.79492 36.5088L5.83447 36.5743L5.91514 36.7008L5.94949 36.7539L6.06659 36.923L6.08949 36.9543L6.19618 37.0963L6.23626 37.1473L6.34035 37.2686L6.37782 37.3139L6.51522 37.4711L6.52354 37.4799L6.66302 37.6272L6.70778 37.6725L6.81916 37.7766L6.86495 37.8198L7.01744 37.9587L7.04659 37.9832L7.18555 38.1003L7.23759 38.1461L7.35313 38.2366L7.41558 38.2887L7.5457 38.3824L7.60607 38.425L7.73201 38.5083L7.78666 38.5447L7.98443 38.6655L8.03908 38.6967L8.1874 38.78L8.26963 38.8216L8.3758 38.8768L8.40026 38.8888L8.44346 38.9096L8.61157 38.9876L8.64696 39.0033L8.84316 39.0844L8.89104 39.1032L9.0758 39.1719L9.09922 39.1802L9.30532 39.2479L9.35528 39.2624L9.56346 39.3228C14.1824 40.1659 15.5241 36.5468 15.5241 36.5468C14.3973 38.0144 12.4014 38.4021 10.5018 37.9712C10.43 37.9556 10.3603 37.9327 10.2905 37.9119L10.2385 37.8963C10.1705 37.8753 10.1028 37.8533 10.0355 37.8302L10.0074 37.8198C9.94702 37.7989 9.88769 37.776 9.82784 37.7531L9.77736 37.7334C9.71217 37.7077 9.64745 37.6808 9.58323 37.6527L9.54472 37.6355L9.3813 37.5595L9.32926 37.5366C9.28658 37.5158 9.24495 37.494 9.20279 37.4721L9.11848 37.4279C9.0675 37.4005 9.017 37.3722 8.96703 37.343L8.91602 37.3144C8.8495 37.2752 8.78357 37.2349 8.71826 37.1937C8.70004 37.1822 8.68287 37.1697 8.66517 37.1583L8.52465 37.0646C8.50904 37.0542 8.49446 37.0438 8.47937 37.0334L8.34666 36.9371L8.28785 36.8929L8.16815 36.7992L8.11454 36.7565L7.96517 36.6305C7.95997 36.6253 7.95476 36.6217 7.94956 36.617C7.89647 36.565 7.84443 36.5223 7.79239 36.4744L7.74815 36.4317L7.63521 36.3214L7.59097 36.2772C7.544 36.2292 7.49785 36.1804 7.45254 36.1309C7.40251 36.0762 7.35341 36.0207 7.30525 35.9644L7.26882 35.9207L7.16785 35.7958L7.13142 35.7437L7.01484 35.5886C5.96771 34.1564 5.58935 32.1766 6.43611 30.5507L5.68511 31.4964ZM8.65476 30.3399C7.96413 31.3288 8.0016 32.6648 8.54026 33.7155C8.63048 33.8922 8.73254 34.0627 8.84576 34.2256C8.94985 34.3739 9.06435 34.5503 9.20123 34.6695L9.35632 34.8256L9.39691 34.8657L9.55513 35.013L9.56294 35.0198L9.74769 35.1728L9.78933 35.2056L9.98293 35.3461L10.1183 35.4361L10.2614 35.5246L10.2822 35.5366L10.4092 35.6074L10.5429 35.6766L10.5565 35.6828L10.7412 35.7692L10.7818 35.7859L10.938 35.8473L11.003 35.8712L11.142 35.9196L11.2044 35.9404C11.271 35.9613 11.3366 35.9925 11.4058 35.9987C14.9724 36.5894 15.7958 33.8441 15.7958 33.8441C15.0536 34.9131 13.6162 35.4231 12.0824 35.0255L11.8805 34.9672L11.8196 34.9474L11.6791 34.8985L11.615 34.8746L11.4631 34.8132L11.4214 34.796L11.2356 34.7096C11.2356 34.7096 11.179 34.6771 11.142 34.6575C11.1212 34.6465 11.0884 34.63 11.0884 34.63L10.9426 34.5467L10.7995 34.4593L10.6642 34.3692L10.4716 34.2287L10.4284 34.1943C9.75186 33.6645 9.22465 32.9453 8.97119 32.1188C8.71097 31.2669 8.76301 30.3108 9.22257 29.5348L8.65476 30.3399ZM11.143 29.476C10.736 30.0745 10.6954 30.8187 10.9785 31.4813C11.2762 32.1839 11.8872 32.7303 12.5997 32.9906L12.6882 33.0218L12.7272 33.0343L12.8542 33.0707C14.8236 33.4506 15.3524 32.06 15.4996 31.8555C15.0312 32.5289 14.2506 32.6908 13.2805 32.4566C13.2015 32.4357 13.1234 32.4118 13.0463 32.3848C12.9518 32.3513 12.8593 32.3129 12.7689 32.2697C12.5974 32.1872 12.4346 32.0879 12.2828 31.9731C11.4188 31.3173 10.8776 30.0683 11.4464 29.0508" fill="#A4A4A4"/>
</svg>
