<svg width="70" height="70" viewBox="0 0 70 70" fill="none" xmlns="http://www.w3.org/2000/svg">
<path fill-rule="evenodd" clip-rule="evenodd" d="M45.8337 18.0945C41.6781 18.7491 38.766 21.1507 37.6454 24.848C37.2811 26.0496 37.2778 28.9098 37.6389 30.2591C38.235 32.4856 39.4326 34.2321 41.3448 35.664C42.7481 36.7148 43.8334 37.2947 46.7927 38.5755C51.6907 40.6951 52.6059 41.4151 52.8324 43.3274C53.0075 44.8057 51.9745 46.2573 50.3432 46.8252C49.2637 47.201 46.7713 47.212 45.5872 46.8463C44.0437 46.3695 42.7704 45.3258 41.2268 43.2718L40.9299 42.8768L38.1099 44.5226C36.5588 45.4276 35.265 46.1923 35.2347 46.2219C35.1293 46.3244 36.0051 47.7042 36.7919 48.6756C38.6047 50.914 41.366 52.5262 44.5687 53.2162C45.5171 53.4206 46.4323 53.485 48.277 53.4775C51.23 53.4654 52.6531 53.1711 54.8076 52.1265C55.9566 51.5693 56.4247 51.2337 57.3359 50.313C59.2123 48.4171 60.0049 46.4071 60 43.5565C59.992 38.8894 57.9096 35.9544 52.8039 33.4144C52.1508 33.0895 50.7148 32.4338 49.6128 31.9572C45.375 30.1246 44.4293 29.2802 44.4212 27.3218C44.4133 25.4295 45.7515 24.273 47.9274 24.2915C49.6715 24.3064 50.8993 25.039 52.0173 26.7322L52.3836 27.287L53.8553 26.3499C54.6649 25.8344 55.9134 25.034 56.63 24.5712L57.9329 23.7297L57.7096 23.2981C57.3343 22.5722 56.0183 21.0183 55.206 20.3418C54.1847 19.4912 52.657 18.7271 51.2664 18.3715C49.9442 18.0334 47.1324 17.89 45.8337 18.0945ZM24.2019 31.3352L24.1579 44.2852L23.8157 45.1324C23.2371 46.5643 22.2939 47.1028 20.3731 47.0976C18.5772 47.0925 17.5116 46.3621 16.2258 44.2545L15.7543 43.4815L12.906 45.2046C11.3394 46.1521 10.0364 46.9441 10.0106 46.9644C9.89315 47.0569 10.7803 48.5639 11.4253 49.3676C12.8887 51.1911 14.9322 52.5237 17.2136 53.1425C18.8061 53.5742 22.3072 53.6101 23.9353 53.2112C27.5938 52.3148 29.9272 50.0355 30.946 46.3632C31.2733 45.1833 31.2756 45.0901 31.3218 31.7804L31.3684 18.3851H27.8071H24.2458L24.2019 31.3352Z" fill="#A4A4A4"/>
</svg>
