<svg width="70" height="70" viewBox="0 0 70 70" fill="none" xmlns="http://www.w3.org/2000/svg">
<path fill-rule="evenodd" clip-rule="evenodd" d="M59.626 21.5639C59.6444 21.632 59.6538 21.7023 59.654 21.7729V32.7449C59.654 32.8857 59.6168 33.024 59.5462 33.1459C59.4757 33.2677 59.3742 33.3688 59.252 33.4389L50.043 38.7409V49.2499C50.043 49.5359 49.891 49.7999 49.643 49.9439L30.42 61.0099C30.376 61.0349 30.328 61.0509 30.28 61.0679C30.262 61.0739 30.245 61.0849 30.226 61.0899C30.0916 61.1253 29.9504 61.1253 29.816 61.0899C29.794 61.0839 29.774 61.0719 29.753 61.0639C29.709 61.0479 29.663 61.0339 29.621 61.0099L10.402 49.9439C10.2799 49.8737 10.1785 49.7726 10.1079 49.6508C10.0373 49.529 10.0001 49.3907 10 49.2499V16.3339C10 16.2619 10.01 16.1919 10.028 16.1239C10.034 16.1009 10.048 16.0799 10.056 16.0569C10.071 16.0149 10.085 15.9719 10.107 15.9329C10.122 15.9069 10.144 15.8859 10.162 15.8619C10.185 15.8299 10.206 15.7969 10.233 15.7689C10.256 15.7459 10.286 15.7289 10.312 15.7089C10.341 15.6849 10.367 15.6589 10.4 15.6399H10.401L20.011 10.1069C20.1327 10.0369 20.2706 10 20.411 10C20.5514 10 20.6893 10.0369 20.811 10.1069L30.421 15.6399H30.423C30.455 15.6599 30.482 15.6849 30.511 15.7079C30.537 15.7279 30.566 15.7459 30.589 15.7679C30.617 15.7969 30.637 15.8299 30.661 15.8619C30.678 15.8859 30.701 15.9069 30.715 15.9329C30.738 15.9729 30.751 16.0149 30.767 16.0569C30.775 16.0799 30.789 16.1009 30.795 16.1249C30.8134 16.193 30.8228 16.2633 30.823 16.3339V36.8929L38.831 32.2819V21.7719C38.831 21.7019 38.841 21.6309 38.859 21.5639C38.866 21.5399 38.879 21.5189 38.887 21.4959C38.903 21.4539 38.917 21.4109 38.939 21.3719C38.954 21.3459 38.976 21.3249 38.993 21.3009C39.017 21.2689 39.037 21.2359 39.065 21.2079C39.088 21.1849 39.117 21.1679 39.143 21.1479C39.173 21.1239 39.199 21.0979 39.231 21.0789H39.232L48.843 15.5459C48.9646 15.4758 49.1026 15.4388 49.243 15.4388C49.3834 15.4388 49.5214 15.4758 49.643 15.5459L59.253 21.0789C59.287 21.0989 59.313 21.1239 59.343 21.1469C59.368 21.1669 59.397 21.1849 59.42 21.2069C59.448 21.2359 59.468 21.2689 59.492 21.3009C59.51 21.3249 59.532 21.3459 59.546 21.3719C59.569 21.4109 59.582 21.4539 59.598 21.4959C59.607 21.5189 59.62 21.5399 59.626 21.5639ZM58.052 32.2819V23.1579L54.689 25.0939L50.043 27.7689V36.8929L58.053 32.2819H58.052ZM48.442 48.7869V39.6569L43.872 42.2669L30.822 49.7149V58.9309L48.442 48.7869ZM11.602 17.7189V48.7869L29.22 58.9299V49.7159L20.016 44.5069L20.013 44.5049L20.009 44.5029C19.978 44.4849 19.952 44.4589 19.923 44.4369C19.898 44.4169 19.869 44.4009 19.847 44.3789L19.845 44.3759C19.819 44.3509 19.801 44.3199 19.779 44.2919C19.759 44.2649 19.735 44.2419 19.719 44.2139L19.718 44.2109C19.7 44.1809 19.689 44.1449 19.676 44.1109C19.663 44.0809 19.646 44.0529 19.638 44.0209V44.0199C19.628 43.9819 19.626 43.9419 19.622 43.9029C19.618 43.8729 19.61 43.8429 19.61 43.8129V43.8109V22.3299L14.965 19.6539L11.602 17.7199V17.7189ZM20.412 11.7249L12.405 16.3339L20.41 20.9429L28.416 16.3329L20.41 11.7249H20.412ZM24.576 40.4889L29.221 37.8149V17.7189L25.858 19.6549L21.212 22.3299V42.4259L24.576 40.4889ZM49.243 17.1639L41.237 21.7729L49.243 26.3819L57.248 21.7719L49.243 17.1639ZM48.442 27.7689L43.796 25.0939L40.433 23.1579V32.2819L45.078 34.9559L48.442 36.8929V27.7689ZM30.02 48.3299L41.763 41.6259L47.633 38.2759L39.633 33.6699L30.422 38.9729L22.027 43.8059L30.02 48.3299Z" fill="#A4A4A4"/>
</svg>
