<svg width="35" height="35" viewBox="0 0 35 35" fill="none" xmlns="http://www.w3.org/2000/svg">
<path fill-rule="evenodd" clip-rule="evenodd" d="M30.9397 0.433316C30.8947 0.671674 30.7244 1.13182 30.5613 1.45594C29.9918 2.5879 28.7684 3.54425 27.6099 3.76305C27.3716 3.80805 27.1766 3.86185 27.1766 3.88251C27.1766 3.90317 27.3714 3.95711 27.6096 4.00238C27.8477 4.04766 28.3068 4.21564 28.6298 4.37573C29.7527 4.93204 30.7204 6.17049 30.9397 7.33171C30.9847 7.57007 31.0385 7.76502 31.0591 7.76502C31.0798 7.76502 31.1337 7.5702 31.179 7.33205C31.4719 5.79083 32.9674 4.29531 34.5087 4.00238C34.7468 3.95711 34.9416 3.90033 34.9416 3.87606C34.9416 3.85187 34.8025 3.81297 34.6325 3.78968C33.8711 3.68527 32.8119 3.08105 32.1941 2.39863C31.7384 1.89522 31.293 1.03268 31.179 0.432969C31.1337 0.194819 31.0798 0 31.0591 0C31.0385 0 30.9847 0.195027 30.9397 0.433316ZM15.4597 0.33556C15.4597 0.636871 15.2159 1.52347 14.9816 2.07395C14.3443 3.57184 13.0047 4.91422 11.5145 5.54832C10.9532 5.78723 10.0674 6.03176 9.76354 6.03176C9.41051 6.03176 9.55645 6.15135 9.96606 6.19767C10.5565 6.2645 11.6424 6.66204 12.2834 7.04606C13.4096 7.72086 14.4731 8.93303 14.9763 10.1157C15.2152 10.677 15.4597 11.5627 15.4597 11.8666C15.4597 12.2196 15.5793 12.0737 15.6257 11.6641C15.6925 11.0736 16.09 9.98776 16.4741 9.3468C17.1488 8.22052 18.361 7.15706 19.5437 6.65386C20.105 6.41495 20.9907 6.17042 21.2946 6.17042C21.4029 6.17042 21.4915 6.13922 21.4915 6.10109C21.4915 6.06296 21.4057 6.03127 21.3008 6.03072C20.9957 6.02899 20.0849 5.77863 19.5398 5.54665C18.0536 4.91429 16.7132 3.57025 16.0765 2.07395C15.8422 1.52347 15.5984 0.636871 15.5984 0.33556C15.5984 0.227266 15.5672 0.138661 15.5291 0.138661C15.4909 0.138661 15.4597 0.227266 15.4597 0.33556ZM12.1843 18.2859L0 30.4708L4.43397 34.9102L28.841 10.5048L26.6399 8.30296C25.4293 7.09196 24.4231 6.10109 24.4037 6.10109C24.3844 6.10109 18.8856 11.5842 12.1843 18.2859ZM24.3348 10.643L24.8521 11.1637L21.701 14.3148L21.1803 13.7975C20.8939 13.5131 20.6595 13.2486 20.6595 13.2098C20.6595 13.1176 23.6539 10.123 23.7465 10.1225C23.7856 10.1224 24.0504 10.3566 24.3348 10.643ZM32.0743 13.5082C31.998 13.9852 31.5763 14.716 31.1334 15.1383C30.703 15.5488 30.0341 15.9173 29.5858 15.9905C29.2515 16.0452 29.2541 16.1248 29.5919 16.1788C30.0689 16.2551 30.7997 16.6768 31.222 17.1197C31.6326 17.5501 32.001 18.219 32.0743 18.6673C32.0977 18.8103 32.1401 18.9272 32.1684 18.9272C32.1968 18.9272 32.2391 18.8103 32.2626 18.6673C32.3358 18.219 32.7043 17.5501 33.1148 17.1197C33.5371 16.6768 34.2679 16.2551 34.7449 16.1788C35.0827 16.1248 35.0853 16.0452 34.751 15.9905C34.3113 15.9186 33.6743 15.569 33.2249 15.153C32.7651 14.7273 32.3418 14.0037 32.2626 13.5082C32.2392 13.3619 32.1968 13.2421 32.1684 13.2421C32.1401 13.2421 32.0976 13.3619 32.0743 13.5082Z" fill="#383838"/>
</svg>
