<svg width="70" height="70" viewBox="0 0 70 70" fill="none" xmlns="http://www.w3.org/2000/svg">
<path fill-rule="evenodd" clip-rule="evenodd" d="M33.1989 22.0376C27.1148 22.3262 22.0467 23.5145 17.7426 25.6612C13.7474 27.654 11.1666 30.2568 10.2452 33.2226C9.91827 34.275 9.91827 36.083 10.2452 37.1355C11.3354 40.6447 14.7232 43.6094 20.0793 45.7415C27.3024 48.6169 37.3936 49.1543 45.6226 47.1019C52.2931 45.4382 57.2281 42.3657 59.1154 38.7016C59.8162 37.341 60 36.609 60 35.179C60 33.749 59.8162 33.0171 59.1154 31.6565C57.064 27.6736 51.2679 24.3315 43.8617 22.8612C40.5544 22.2046 36.4163 21.8849 33.1989 22.0376ZM36.0847 25.7726C36.0847 25.7273 35.9967 25.602 35.8891 25.4944C35.7094 25.3148 35.563 25.2988 34.098 25.2988C32.9753 25.2988 32.4535 25.335 32.3369 25.4211C32.2138 25.5118 32.0203 26.3246 31.5858 28.5759C30.8351 32.4651 30.9075 32.1941 30.7539 31.6853C30.4798 30.7785 29.707 29.8464 28.8798 29.4251C27.8626 28.9069 27.6652 28.8843 23.8013 28.8439C20.5864 28.8103 20.1608 28.8235 20.0471 28.9605C19.9504 29.077 17.305 42.2624 17.3028 42.6381C17.3026 42.6784 17.3905 42.7995 17.4981 42.9072C17.6777 43.0868 17.8241 43.1028 19.2891 43.1028C20.4493 43.1028 20.9323 43.0679 21.0597 42.9748C21.1883 42.8806 21.3168 42.4204 21.5441 41.2384L21.8534 39.63L23.711 39.5706C25.8354 39.5027 26.5843 39.3607 27.5796 38.8378C28.3244 38.4464 29.251 37.6527 29.6713 37.0462C29.825 36.8243 29.9624 36.6546 29.9765 36.6691C29.9905 36.6835 29.8968 37.2437 29.7684 37.9141C29.4347 39.6548 29.3594 39.5811 31.4705 39.5811C32.6383 39.5811 33.1613 39.5454 33.2814 39.4577C33.4099 39.3638 33.6194 38.4602 34.1561 35.6857L34.8619 32.0371L36.2481 32.0673C37.0104 32.084 37.6706 32.1342 37.7151 32.1789C37.8637 32.3279 37.7624 33.0538 37.1668 36.1025C36.6235 38.8841 36.5876 39.1475 36.7237 39.3552C36.8691 39.577 36.9033 39.5811 38.5815 39.5811C39.9592 39.5811 40.2911 39.607 40.2911 39.7144C40.2911 39.7877 40.1811 40.3881 40.0466 41.0485C39.9121 41.7089 39.802 42.3722 39.802 42.5223C39.802 43.0594 39.9479 43.1028 41.7503 43.1028C43.1898 43.1028 43.4099 43.0818 43.5435 42.9316C43.6272 42.8374 43.7902 42.2762 43.9057 41.6844L44.2157 40.0947L44.3158 39.5811H45.7819C48.7884 39.5811 50.1304 39.1351 51.5597 37.6609C52.6509 36.5357 53.2717 35.098 53.3709 33.4671C53.5177 31.0539 52.3046 29.4727 49.9182 28.9671C49.4024 28.8578 48.463 28.8235 45.9557 28.8221C42.9483 28.8206 42.6561 28.835 42.5151 28.9917C42.4304 29.0859 42.2591 29.6867 42.1345 30.327L41.9082 31.491L41.7953 31.1013C41.6307 30.5324 41.4257 30.1804 41.0576 29.8341C40.2867 29.1088 39.536 28.9127 37.283 28.8479C36.3011 28.8197 35.4978 28.7868 35.4978 28.7749C35.4978 28.7629 35.6298 28.1012 35.7912 27.3042C35.9526 26.5072 36.0847 25.818 36.0847 25.7726Z" fill="#A4A4A4"/>
<path fill-rule="evenodd" clip-rule="evenodd" d="M26.5456 31.7063C26.7601 31.8139 27.0396 32.056 27.1668 32.2443C27.3785 32.5577 27.3942 32.6612 27.3514 33.4671C27.2793 34.8266 26.7807 35.9145 26.0057 36.4038C25.3508 36.8172 24.621 36.9488 23.1515 36.9183L21.8375 36.891L22.2936 34.5432C22.5445 33.2519 22.7814 32.0266 22.8201 31.8204L22.8904 31.4454L24.5229 31.4781C25.9183 31.5059 26.2122 31.5391 26.5456 31.7063ZM22.9318 34.103C23.1226 33.1076 23.3036 32.2101 23.334 32.1084C23.3856 31.9362 23.4746 31.9271 24.6426 31.9744C26.5651 32.0524 26.9501 32.3206 26.8407 33.5059C26.7266 34.7423 26.2332 35.6954 25.5183 36.0601C25.0762 36.2857 24.0949 36.4461 23.1397 36.4488L22.4716 36.4508L22.5283 36.1817C22.5595 36.0338 22.7412 35.0983 22.9318 34.103Z" fill="#A4A4A4"/>
<path fill-rule="evenodd" clip-rule="evenodd" d="M35.8891 25.4944C35.9967 25.602 36.0847 25.7273 36.0847 25.7726C36.0847 25.818 35.9526 26.5072 35.7912 27.3042C35.6298 28.1012 35.4978 28.7629 35.4978 28.7749C35.4978 28.7868 36.3011 28.8197 37.283 28.8479C39.536 28.9127 40.2867 29.1088 41.0576 29.8341C41.4257 30.1804 41.6307 30.5324 41.7953 31.1013L41.9082 31.491L42.1345 30.327C42.2591 29.6867 42.4304 29.0859 42.5151 28.9917C42.6561 28.835 42.9483 28.8206 45.9557 28.8221C48.463 28.8235 49.4024 28.8578 49.9182 28.9671C52.3046 29.4727 53.5177 31.0539 53.3709 33.4671C53.2717 35.098 52.6509 36.5357 51.5597 37.6609C50.1304 39.1351 48.7884 39.5811 45.7819 39.5811H44.3158L44.2157 40.0947L43.9057 41.6844C43.7902 42.2762 43.6272 42.8374 43.5435 42.9316C43.4099 43.0818 43.1898 43.1028 41.7503 43.1028C39.9479 43.1028 39.802 43.0594 39.802 42.5223C39.802 42.3722 39.9121 41.7089 40.0466 41.0485C40.1811 40.3881 40.2911 39.7877 40.2911 39.7144C40.2911 39.607 39.9592 39.5811 38.5815 39.5811C36.9033 39.5811 36.8691 39.577 36.7237 39.3552C36.5876 39.1475 36.6235 38.8841 37.1668 36.1025C37.7624 33.0538 37.8637 32.3279 37.7151 32.1789C37.6706 32.1342 37.0104 32.084 36.2481 32.0673L34.8619 32.0371L34.1561 35.6857C33.6194 38.4602 33.4099 39.3638 33.2814 39.4577C33.1613 39.5454 32.6383 39.5811 31.4705 39.5811C29.3594 39.5811 29.4347 39.6548 29.7684 37.9141C29.8968 37.2437 29.9905 36.6835 29.9765 36.6691C29.9624 36.6546 29.825 36.8243 29.6713 37.0462C29.251 37.6527 28.3244 38.4464 27.5796 38.8378C26.5843 39.3607 25.8354 39.5027 23.711 39.5706L21.8534 39.63L21.5441 41.2384C21.3168 42.4204 21.1883 42.8806 21.0597 42.9748C20.9323 43.0679 20.4493 43.1028 19.2891 43.1028C17.8241 43.1028 17.6777 43.0868 17.4981 42.9072C17.3905 42.7995 17.3026 42.6784 17.3028 42.6381C17.305 42.2624 19.9504 29.077 20.0471 28.9605C20.1608 28.8235 20.5864 28.8103 23.8013 28.8439C27.6652 28.8843 27.8626 28.9069 28.8798 29.4251C29.707 29.8464 30.4798 30.7785 30.7539 31.6853C30.9075 32.1941 30.8351 32.4651 31.5858 28.5759C32.0203 26.3246 32.2138 25.5118 32.3369 25.4211C32.4535 25.335 32.9753 25.2988 34.098 25.2988C35.563 25.2988 35.7094 25.3148 35.8891 25.4944ZM30.1174 39.0277C30.1174 38.9477 32.5536 26.4086 32.628 26.1058C32.6809 25.8902 32.711 25.8857 34.0944 25.8857H35.5067L35.4414 26.2526C35.4056 26.4544 35.2555 27.2247 35.1079 27.9645L34.8397 29.3096L35.9757 29.3105C37.6253 29.3116 39.2219 29.4739 39.8328 29.7025C40.4467 29.9321 41.0149 30.4586 41.1914 30.9611C41.4191 31.6095 41.3055 32.6716 40.6622 35.9127L40.0409 39.0431L38.6008 39.0702C37.8088 39.0851 37.1608 39.0679 37.1608 39.0322C37.1608 38.9964 37.4249 37.6074 37.7477 35.9456C38.3588 32.7998 38.4062 32.4105 38.2261 32.0151C38.0389 31.6044 37.7125 31.5256 36.0203 31.4824L34.4397 31.442L34.3329 31.9654C34.2742 32.2533 33.9839 33.7435 33.688 35.2769C33.3921 36.8103 33.1028 38.296 33.0452 38.5784L32.9404 39.092H31.5289C30.7526 39.092 30.1174 39.0631 30.1174 39.0277ZM17.8894 42.4574C17.8894 42.3811 20.3298 29.8208 20.4034 29.5185L20.4596 29.2874L23.7478 29.3372C27.2379 29.39 27.6657 29.4399 28.5898 29.9013C29.2268 30.2195 29.9579 31.0362 30.1826 31.6806C30.4625 32.484 30.4181 34.0209 30.0856 35.0323C29.4428 36.9876 27.867 38.4444 25.9599 38.8463C25.5833 38.9256 24.4048 39.0204 23.341 39.0568C21.4843 39.1204 21.4053 39.1312 21.3634 39.3277C21.3394 39.4402 21.2055 40.1265 21.0658 40.8528C20.9261 41.5792 20.7896 42.2506 20.7625 42.3447C20.7184 42.4976 20.5618 42.5159 19.3013 42.5159C18.5248 42.5159 17.8894 42.4895 17.8894 42.4574ZM41.6204 35.8154C42.2981 32.3184 42.8765 29.4188 42.9056 29.3716C42.9351 29.3238 44.4104 29.3078 46.2471 29.3354C49.7187 29.3876 50.1551 29.439 51.0641 29.9028C51.6081 30.1803 52.2305 30.8252 52.5215 31.4128C52.7403 31.8545 52.7637 32.0205 52.7637 33.1247C52.7637 34.1512 52.7261 34.4626 52.529 35.0644C51.9194 36.9249 50.2549 38.4648 48.4357 38.851C48.0722 38.9282 46.8902 39.0208 45.809 39.0567L43.8433 39.122L43.1953 42.5159H41.7523C40.4284 42.5159 40.3127 42.5018 40.3488 42.3447C40.3704 42.2506 40.9427 39.3123 41.6204 35.8154Z" fill="#A4A4A4"/>
<path fill-rule="evenodd" clip-rule="evenodd" d="M44.9867 36.3045C44.9867 36.208 45.1693 35.1829 45.3923 34.0266L45.7979 31.9242L47.0798 31.9739C49.0907 32.052 49.354 32.237 49.2643 33.509C49.1628 34.9482 48.5589 35.9132 47.5699 36.2167C47.3058 36.2977 46.6168 36.3901 46.0383 36.422C45.0705 36.4754 44.9867 36.4661 44.9867 36.3045Z" fill="#A4A4A4"/>
<path fill-rule="evenodd" clip-rule="evenodd" d="M48.698 31.6157C49.6642 31.9026 49.9851 32.5335 49.7954 33.7728C49.5575 35.327 48.956 36.2613 47.9368 36.66C47.4716 36.842 47.1355 36.8832 45.8293 36.9187L44.2751 36.961L44.3199 36.7303C44.3447 36.6035 44.5818 35.3663 44.847 33.981L45.3291 31.4624L46.7542 31.462C47.767 31.4618 48.3295 31.5063 48.698 31.6157ZM44.9867 36.3045C44.9867 36.208 45.1693 35.1829 45.3923 34.0266L45.7979 31.9242L47.0798 31.9739C49.0907 32.052 49.354 32.237 49.2643 33.509C49.1628 34.9482 48.5589 35.9132 47.5699 36.2167C47.3058 36.2977 46.6168 36.3901 46.0383 36.422C45.0705 36.4754 44.9867 36.4661 44.9867 36.3045Z" fill="#A4A4A4"/>
<path d="M23.334 32.1084C23.3036 32.2101 23.1226 33.1076 22.9318 34.103C22.7412 35.0983 22.5595 36.0338 22.5283 36.1817L22.4716 36.4508L23.1397 36.4488C24.0949 36.4461 25.0762 36.2857 25.5183 36.0601C26.2332 35.6954 26.7266 34.7423 26.8407 33.5059C26.9501 32.3206 26.5651 32.0524 24.6426 31.9744C23.4746 31.9271 23.3856 31.9362 23.334 32.1084Z" fill="#A4A4A4"/>
</svg>
