<svg width="70" height="70" viewBox="0 0 70 70" fill="none" xmlns="http://www.w3.org/2000/svg">
<path fill-rule="evenodd" clip-rule="evenodd" d="M51.8281 17.8925L52.882 19.2801C53.1587 19.6464 53.0895 20.1713 52.7233 20.448L51.6043 21.2985C51.8077 21.8397 51.9379 22.4175 51.9908 23.0076L53.2645 23.1826C53.7203 23.2436 54.0377 23.6668 53.9766 24.1226L53.7406 25.852C53.6796 26.3077 53.2564 26.6292 52.8006 26.5641L51.4089 26.3728C51.1607 26.9141 50.8433 27.4105 50.4689 27.8541L51.2502 28.8795C51.527 29.2457 51.4537 29.7707 51.0875 30.0474L49.6999 31.1013C49.3336 31.378 48.8087 31.3048 48.532 30.9426L47.6815 29.8236C47.1362 30.027 46.5625 30.1572 45.9684 30.2101L45.7934 31.4838C45.7323 31.9396 45.3091 32.257 44.8534 32.1959L43.124 31.9599C42.6682 31.8989 42.3508 31.4757 42.4118 31.0199L42.6031 29.6282C42.0659 29.38 41.5654 29.0626 41.1219 28.6923L40.0964 29.4695C39.7302 29.7463 39.2053 29.6771 38.9286 29.3108L37.8746 27.9232C37.5979 27.557 37.6671 27.0321 38.0333 26.7554L39.1524 25.9049C38.9489 25.3596 38.8187 24.7858 38.7658 24.1958L37.4921 24.0208C37.0364 23.9598 36.7149 23.5366 36.78 23.0808L37.016 21.3514C37.0811 20.8956 37.5002 20.5782 37.956 20.6393L39.3477 20.8305C39.5959 20.2934 39.9133 19.7929 40.2836 19.3493L39.5064 18.3239C39.2297 17.9617 39.2989 17.4368 39.6651 17.1601L41.0527 16.1061C41.4189 15.8294 41.9439 15.8986 42.2206 16.2648L43.071 17.3839C43.6123 17.1804 44.1901 17.0502 44.7801 16.9973L44.9551 15.7236C45.0162 15.2679 45.4394 14.9464 45.8951 15.0074L47.6245 15.2435C48.0803 15.3045 48.4018 15.7277 48.3367 16.1834L48.1454 17.5751C48.6866 17.8234 49.1831 18.1408 49.6307 18.5151L50.6561 17.7379C51.0224 17.4571 51.5473 17.5263 51.8281 17.8925ZM22.0737 35.5978H25.5326C26.1755 35.5978 26.6638 35.6507 27.0016 35.7647C27.3393 35.8745 27.616 36.078 27.8195 36.3751C28.027 36.6762 28.1328 37.0383 28.1328 37.4656C28.1328 37.8359 28.0515 38.1615 27.8928 38.43C27.7341 38.7027 27.5143 38.9224 27.2376 39.0892C27.0626 39.195 26.8185 39.2846 26.5092 39.3537C26.7574 39.4392 26.9365 39.5165 27.0464 39.602C27.1237 39.6589 27.2335 39.777 27.376 39.956C27.5184 40.135 27.616 40.2775 27.6649 40.3751L28.6741 42.3162H26.3302L25.2233 40.2693C25.0809 40.0048 24.9588 39.8299 24.849 39.7525C24.6984 39.6508 24.5275 39.5979 24.3403 39.5979H24.1572V42.3162H22.0737V35.5978ZM29.3902 54.003H25.5163L24.9588 55.8261H21.4674L25.6303 44.7618H29.374L33.5205 55.8261H29.9396L29.3902 54.003ZM28.6659 51.6063L27.4573 47.6265L26.2447 51.6063H28.6659ZM34.3262 44.7618H40.015C41.2562 44.7618 42.184 45.0548 42.7984 45.6448C43.4129 46.2348 43.7221 47.0772 43.7221 48.1637C43.7221 49.2827 43.3844 50.1576 42.713 50.7883C42.0415 51.4191 41.012 51.7324 39.6325 51.7324H37.7566V55.8261H34.3262V44.7618ZM37.7566 49.4902H38.5989C39.2622 49.4902 39.7302 49.3763 39.9988 49.1444C40.2673 48.9165 40.4016 48.6194 40.4016 48.2654C40.4016 47.9195 40.2836 47.6225 40.0517 47.3824C39.8197 47.1423 39.3802 47.0202 38.7373 47.0202H37.7566V49.4902ZM45.1057 44.7618H48.536V55.8261H45.1057V44.7618ZM24.1572 38.3242H25.0321C25.1257 38.3242 25.3088 38.2917 25.5814 38.2306C25.7198 38.2022 25.8337 38.133 25.9192 38.019C26.0087 37.9051 26.0494 37.7749 26.0494 37.6284C26.0494 37.4127 25.9802 37.2418 25.8419 37.1279C25.7035 37.0099 25.4471 36.9529 25.0687 36.9529H24.1572V38.3242ZM29.0728 35.5978H34.6274V37.0302H31.1563V38.1004H34.3751V39.4677H31.1563V40.7902H34.7291V42.308H29.0728V35.5978ZM35.2215 40.0903L37.191 39.9682C37.2317 40.2897 37.3212 40.5298 37.4514 40.6966C37.6671 40.9652 37.9723 41.1035 38.367 41.1035C38.66 41.1035 38.8919 41.0343 39.0506 40.896C39.2093 40.7576 39.2907 40.5949 39.2907 40.4118C39.2907 40.2368 39.2134 40.0821 39.0628 39.9438C38.9123 39.8054 38.5583 39.6793 38.0008 39.5531C37.0933 39.3497 36.4463 39.077 36.0557 38.7393C35.665 38.4015 35.4697 37.9702 35.4697 37.4453C35.4697 37.0994 35.5714 36.7738 35.7708 36.4687C35.9702 36.1635 36.2713 35.9193 36.6742 35.7443C37.077 35.5693 37.6264 35.4839 38.3263 35.4839C39.1849 35.4839 39.836 35.6426 40.2877 35.9641C40.7353 36.2855 41.0039 36.7901 41.0893 37.49L39.1402 37.608C39.0873 37.3028 38.9774 37.079 38.8146 36.9448C38.6478 36.8064 38.4158 36.7372 38.1269 36.7372C37.8868 36.7372 37.7037 36.7901 37.5816 36.8919C37.4596 36.9936 37.3985 37.1197 37.3985 37.2662C37.3985 37.372 37.4514 37.4656 37.5491 37.5551C37.6467 37.6406 37.8746 37.726 38.2409 37.8034C39.1483 37.9987 39.7994 38.1981 40.19 38.3975C40.5807 38.5969 40.8696 38.8451 41.0446 39.1421C41.2236 39.4351 41.3131 39.7688 41.3131 40.135C41.3131 40.5664 41.1951 40.9611 40.955 41.3233C40.719 41.6854 40.3853 41.9621 39.9581 42.1493C39.5308 42.3365 38.9937 42.4301 38.3426 42.4301C37.2032 42.4301 36.4097 42.2104 35.9702 41.7709C35.5307 41.3233 35.2825 40.7658 35.2215 40.0903ZM41.6143 35.5978H47.9257V37.2581H45.8097V42.3121H43.7343V37.2581H41.6143V35.5978ZM34.6314 19.6627C33.8868 19.6057 33.1339 19.6138 32.3893 19.6871C30.0983 19.9068 27.8724 20.741 26.0331 22.1693C23.9049 23.8174 22.2894 26.2833 21.6668 29.5509L21.4715 30.5723L20.4542 30.7514C19.4572 30.9263 18.566 31.1664 17.7847 31.4716C17.0279 31.7646 16.3524 32.1268 15.7623 32.554C15.2903 32.8959 14.8834 33.2784 14.5375 33.6934C13.4673 34.9752 12.9708 36.5826 12.983 38.2103C12.9952 39.8624 13.5324 41.5308 14.5253 42.9021C14.8956 43.4108 15.3228 43.8788 15.8112 44.2857C16.3076 44.6967 16.8651 45.0385 17.4918 45.2948C17.8458 45.4413 18.2242 45.5634 18.6189 45.6611V48.709C17.8051 48.5625 17.0563 48.3427 16.3564 48.0538C15.4327 47.6713 14.6148 47.1789 13.8945 46.5767C13.2109 46.007 12.6127 45.36 12.1041 44.656C10.749 42.7841 10.0165 40.4972 10.0003 38.2184C9.98399 35.9152 10.7002 33.6242 12.2465 31.7687C12.747 31.1664 13.3371 30.613 14.0125 30.1247C14.7979 29.555 15.6972 29.0748 16.7145 28.6801C17.4144 28.4075 18.1632 28.1796 18.9526 27.9965C19.8479 24.44 21.7563 21.7014 24.2101 19.801C26.5051 18.0227 29.2682 16.9851 32.1126 16.7125C33.606 16.57 35.1197 16.6351 36.6009 16.9118C36.5684 17.0461 36.5399 17.1804 36.5236 17.3188L36.5196 17.3432C36.4911 17.5751 36.4789 17.8071 36.4911 18.0431C36.1777 18.1652 35.8848 18.332 35.6203 18.5355L35.608 18.5436C35.2133 18.8407 34.8797 19.2232 34.6314 19.6627ZM56.1618 27.4756C56.3897 27.6831 56.6094 27.8988 56.8251 28.1308C57.2605 28.5987 57.6715 29.1277 58.0581 29.7178C59.3602 31.7198 60.0276 34.3933 59.9991 37.0099C59.9706 39.5776 59.2789 42.133 57.8628 44.013C56.939 45.2379 55.7549 46.2389 54.3347 47.0324C53.3622 47.5777 52.2676 48.0294 51.0753 48.3956V45.242C51.7182 45.0019 52.3164 44.7333 52.8657 44.4281C53.9359 43.8299 54.8108 43.1015 55.466 42.2266C56.4833 40.8716 56.9838 38.955 57.0042 36.9895C57.0286 34.9264 56.524 32.8552 55.5433 31.3495C55.2625 30.9141 54.9533 30.5235 54.6277 30.1735C54.5016 30.0392 54.3754 29.9131 54.2452 29.791C54.2656 29.5876 54.2737 29.38 54.2615 29.1725C54.5748 29.0504 54.8678 28.8836 55.1323 28.6801L55.1445 28.672C55.5636 28.3505 55.9136 27.9436 56.1618 27.4756ZM45.8422 20.2079C47.7181 20.4643 49.0284 22.1937 48.7721 24.0697C48.5157 25.9456 46.7863 27.2599 44.9104 27.0036C43.0344 26.7472 41.7201 25.0178 41.9805 23.1419C42.2409 21.2659 43.9663 19.9516 45.8422 20.2079Z" fill="#A4A4A4"/>
</svg>
