<svg width="70" height="70" viewBox="0 0 70 70" fill="none" xmlns="http://www.w3.org/2000/svg">
<path fill-rule="evenodd" clip-rule="evenodd" d="M32.625 10.0607C24.7988 10.8739 17.946 15.1267 13.7793 21.7561C9.02122 29.3265 8.73411 39.1377 13.0416 46.9713C14.1868 49.0541 15.5232 50.8357 17.2483 52.5795C19.3066 54.66 21.3698 56.1421 24.0182 57.4422C26.5601 58.6901 28.9947 59.4299 31.9394 59.8491C33.1011 60.0144 36.9429 60.0117 38.1492 59.8448C44.2249 59.0037 49.3799 56.3167 53.5116 51.8371C56.9329 48.128 59.1185 43.4016 59.8772 38.0722C60.0409 36.9217 60.0409 33.0617 59.8772 31.9112C59.2988 27.8475 58.0118 24.3927 55.8739 21.1639C54.9646 19.7907 54.0565 18.6828 52.7914 17.4032C48.882 13.4492 44.0566 11.0157 38.4915 10.1917C37.2919 10.014 33.8198 9.93657 32.625 10.0607ZM43.5419 16.1219C46.8175 16.4517 49.2743 17.7262 50.3128 19.6344C51.1335 21.1423 51.08 23.372 50.1708 25.5562C49.1736 27.9514 46.5762 30.5726 43.9782 31.8054C40.5422 33.4358 35.5644 33.9146 33.1994 32.8422C32.0065 32.3013 31.1312 31.4973 30.8514 30.6852C30.5802 29.8979 30.9143 29.7962 31.616 30.4526C32.7705 31.5325 34.6764 31.9506 36.9757 31.6283C40.5552 31.1265 43.7869 29.5381 45.9646 27.2101C48.143 24.8814 48.8072 22.167 47.5561 20.7055C46.0464 18.9416 41.8459 18.6017 37.4172 19.8851C36.0471 20.2821 34.7874 20.7767 33.2039 21.5394C25.8859 25.0637 22.171 29.2054 23.0326 32.8791C23.4441 34.6337 24.5445 35.873 28.1255 38.6148C28.7171 39.0678 29.5841 39.8063 30.0521 40.256L30.9031 41.0735L31.519 40.9203C33.069 40.5345 35.422 40.4597 36.8353 40.7514C39.852 41.374 42.0066 43.7102 41.8431 46.1812C41.779 47.1507 41.4808 47.7826 40.7825 48.4291C40.2062 48.9626 39.4544 49.3409 39.1797 49.2355C38.9265 49.1383 39.0065 49.0071 39.5894 48.5641C40.3746 47.9674 40.726 47.3663 40.7714 46.5428C40.872 44.7193 39.3209 43.1184 36.877 42.5235C35.7886 42.2585 34.0221 42.1658 32.9753 42.3189C31.8283 42.4866 31.8837 42.4344 32.1033 43.1388C32.508 44.4371 32.4985 46.3655 32.0796 47.9003C31.1546 51.29 27.8524 53.8728 24.4583 53.8615C23.607 53.8587 22.6176 53.6942 22.2435 53.4932C21.8683 53.2918 21.2428 52.4897 21.02 51.9242C20.8477 51.487 20.8015 51.168 20.7985 50.394C20.7925 48.8634 21.244 47.7678 22.3989 46.5105C23.6136 45.1881 26.2452 43.3327 28.5043 42.2057L28.9811 41.968L28.5532 41.6218C28.318 41.4314 27.2893 40.6914 26.2674 39.9774C22.4409 37.3038 20.8417 35.8013 19.8362 33.9349C18.8619 32.1268 18.8948 30.6783 19.9603 28.4775C21.7829 24.7128 26.3329 21.024 32.4283 18.3693C36.8102 16.461 40.167 15.7821 43.5419 16.1219ZM29.003 43.9008C25.8864 45.6787 23.9871 47.8092 23.7194 49.8274C23.6429 50.4044 23.835 50.9371 24.2078 51.1814C24.4096 51.3136 24.6102 51.3386 25.1695 51.3012C27.2804 51.16 29.5453 48.9879 30.1433 46.5312C30.369 45.6039 30.2566 43.5255 29.9756 43.4318C29.9233 43.4144 29.4857 43.6254 29.003 43.9008Z" fill="#A4A4A4"/>
</svg>
