<svg width="70" height="70" viewBox="0 0 70 70" fill="none" xmlns="http://www.w3.org/2000/svg">
<path fill-rule="evenodd" clip-rule="evenodd" d="M34.8165 59.9993C21.4937 59.9076 9.91088 48.8514 10.0005 34.8043C10.087 21.2881 21.3187 9.90799 35.2169 10.0006C48.7241 10.0904 60.1198 21.3023 59.9991 35.0381C60.1108 48.6491 48.6592 60.0955 34.8165 59.9993ZM42.1772 36.9985C43.2029 37.171 44.2439 36.1816 44.3079 34.9901C44.3694 33.8913 43.3615 32.9311 42.2252 32.9255C41.6774 32.9163 41.1479 33.1226 40.7507 33.5001C40.3536 33.8776 40.1206 34.3959 40.102 34.9435C40.1023 35.2137 40.1558 35.4812 40.2594 35.7307C40.3631 35.9802 40.5149 36.2068 40.7062 36.3977C40.8974 36.5885 41.1244 36.7398 41.3742 36.8429C41.6239 36.9459 41.8915 36.9988 42.1617 36.9985H42.1772ZM27.3876 49.6444V46.5394C27.2365 46.5394 27.0915 46.5403 26.9507 46.5411C26.6312 46.543 26.3337 46.5448 26.0363 46.5361C24.9973 46.5054 24.6059 46.2487 24.503 45.2426C24.4255 44.483 24.4063 43.718 24.3872 42.9526C24.3736 42.4117 24.3601 41.8707 24.3259 41.3313C24.1726 38.9068 23.9039 36.5194 21.5428 34.9827C22.759 34.0818 23.6367 33.0201 23.9156 31.5924C24.1112 30.6074 24.2452 29.611 24.3167 28.6093C24.3493 28.1303 24.3389 27.6482 24.3285 27.1664C24.317 26.6356 24.3056 26.105 24.3516 25.5791C24.4928 23.9796 24.5926 23.3212 26.525 23.3805C26.7192 23.3863 26.9142 23.3672 27.1175 23.3472C27.2144 23.3377 27.3131 23.3281 27.4147 23.3208V20.1474C27.1676 20.1474 26.9297 20.1442 26.6981 20.1411C26.2129 20.1345 25.7552 20.1284 25.2985 20.1528C22.9271 20.2787 21.4915 21.4021 21.1003 23.7145C20.9213 24.7715 20.879 25.8515 20.8366 26.9317C20.8149 27.4857 20.7931 28.0398 20.753 28.5908C20.7262 29.4314 20.6363 30.2687 20.484 31.0958C20.1498 32.5678 19.5199 33.0262 18.0253 33.0998C17.8258 33.1221 17.6279 33.1561 17.4325 33.2016V36.7368C20.1584 36.871 20.5262 37.8408 20.7446 40.6813C20.7854 41.2153 20.7746 41.7528 20.7638 42.2905C20.7537 42.7924 20.7436 43.2944 20.7755 43.7937C20.8232 44.7705 20.954 45.7414 21.1665 46.696C21.7872 49.2917 24.3167 50.1635 27.3876 49.6444ZM28.0629 32.9257H28.0264C27.7531 32.9114 27.4798 32.952 27.2226 33.0456C26.9655 33.1392 26.7298 33.2837 26.5298 33.4704C26.3297 33.657 26.1692 33.8821 26.058 34.1321C25.9468 34.3821 25.8871 34.652 25.8825 34.9256C25.8779 35.1992 25.9284 35.4709 26.0311 35.7246C26.1338 35.9782 26.2865 36.2086 26.4801 36.4019C26.6738 36.5953 26.9044 36.7476 27.1582 36.8499C27.412 36.9521 27.6839 37.0022 27.9575 36.9971C28.2291 37.0128 28.5012 36.9729 28.7569 36.8799C29.0126 36.7868 29.2467 36.6426 29.4448 36.456C29.6428 36.2694 29.8008 36.0444 29.9089 35.7947C30.017 35.5449 30.0731 35.2758 30.0737 35.0037C30.0781 34.7352 30.0296 34.4685 29.9309 34.2187C29.8322 33.969 29.6854 33.7412 29.4986 33.5482C29.3119 33.3553 29.089 33.201 28.8427 33.0942C28.5963 32.9874 28.3313 32.9301 28.0629 32.9257ZM37.1227 34.937C37.1164 33.7163 36.2964 32.916 35.0615 32.9257C34.7895 32.917 34.5189 32.9649 34.2666 33.0669C34.0144 33.169 33.7862 33.3226 33.5968 33.518C33.4073 33.7133 33.2608 33.9461 33.1666 34.2014C33.0724 34.4567 33.0326 34.7289 33.0498 35.0005C33.0565 36.2138 33.8777 37.003 35.1255 36.9976C36.352 36.9922 37.1295 36.1904 37.1227 34.937ZM52.0506 33.096C50.7592 33.0372 50.1198 32.6059 49.7912 31.3791C49.5916 30.5906 49.47 29.7838 49.4281 28.9712C49.3811 28.2378 49.3607 27.5025 49.3403 26.7673C49.3192 26.0051 49.2981 25.2428 49.2473 24.4825C49.0085 20.9249 46.4401 19.6877 42.7218 20.305V23.3897C42.9102 23.3897 43.0855 23.3888 43.2519 23.3879C43.6001 23.386 43.9093 23.3844 44.2178 23.392C45.0133 23.4113 45.6137 23.714 45.6991 24.5879C45.7394 25.0012 45.7582 25.4165 45.7771 25.8318C45.7951 26.2301 45.8132 26.6285 45.8502 27.0251C45.8872 27.4166 45.9207 27.8088 45.9542 28.2012C46.0593 29.4332 46.1645 30.6659 46.3806 31.8782C46.616 33.1969 47.5252 34.1751 48.6581 34.9825C46.6786 36.3077 46.0968 38.2059 46.0016 40.3304C45.9718 40.9946 45.9491 41.659 45.9263 42.3234L45.9263 42.3248C45.8987 43.1306 45.871 43.9365 45.8311 44.7417C45.7651 46.0795 45.2887 46.5138 43.9417 46.546C43.6937 46.5518 43.4461 46.5697 43.1841 46.5887C43.0524 46.5982 42.9172 46.608 42.7763 46.6167V49.7757C43.025 49.7757 43.2685 49.7793 43.5083 49.7829L43.5098 49.7829C43.542 49.7834 43.5741 49.7839 43.606 49.7844C44.086 49.7914 44.5516 49.7963 45.0151 49.7689C47.2696 49.6358 48.6342 48.5455 49.0756 46.3602C49.2649 45.1539 49.3759 43.9366 49.4081 42.716C49.44 42.254 49.4571 41.7905 49.4741 41.327C49.4981 40.6754 49.5221 40.0238 49.5874 39.3764C49.7621 37.641 50.5509 36.9311 52.2815 36.8235C52.445 36.7982 52.606 36.76 52.763 36.7082V33.1739C52.6629 33.1628 52.5722 33.1513 52.4877 33.1405C52.3274 33.1201 52.1893 33.1025 52.0506 33.096Z" fill="#A4A4A4"/>
</svg>
