<svg width="70" height="70" viewBox="0 0 70 70" fill="none" xmlns="http://www.w3.org/2000/svg">
<path d="M60 7H10V62.3631H60V7Z" fill="white"/>
<path d="M48.6017 27.903C48.6017 35.5703 42.3866 41.7859 34.7196 41.7859C27.053 41.7859 20.8381 35.5703 20.8381 27.903C20.8381 20.2369 27.0527 14.022 34.7196 14.022C42.3866 14.022 48.6017 20.2369 48.6017 27.903Z" fill="#C0C0C0"/>
<path d="M40.7894 19.1582C39.3792 19.2064 38.1483 19.9849 37.2317 21.0592C36.2168 22.2386 35.5426 23.6361 35.0557 25.0641C34.1859 24.3507 33.5153 23.4277 32.1191 23.0262C31.0401 22.7161 29.9072 22.8438 28.8651 23.62C28.372 23.9886 28.0317 24.5453 27.8701 25.0703C27.4512 26.4312 28.3102 27.6436 28.7002 28.078L29.5535 28.9916C29.729 29.171 30.153 29.6384 29.9455 30.3082C29.7228 31.0376 28.8438 31.5087 27.9426 31.2317C27.5399 31.1082 26.9616 30.8084 27.0913 30.3869C27.1446 30.2139 27.2683 30.0837 27.3349 29.9361C27.3953 29.8072 27.4248 29.7116 27.4433 29.654C27.6079 29.1171 27.3827 28.4178 26.8072 28.2399C26.2698 28.075 25.7203 28.2057 25.5072 28.897C25.2653 29.6827 25.6416 31.1087 27.6559 31.729C30.0161 32.4554 32.0116 31.1698 32.295 29.4948C32.4735 28.4455 31.9993 27.6651 31.1314 26.6629L30.4238 25.88C29.9955 25.452 29.8485 24.7223 30.2918 24.1616C30.6661 23.6884 31.1988 23.4869 32.0718 23.724C33.3465 24.0696 33.9141 24.954 34.8616 25.6673C34.471 26.9512 34.2149 28.2396 33.9837 29.3948L33.8416 30.2564C33.1644 33.8089 32.647 35.7601 31.303 36.8802C31.0322 37.073 30.6451 37.3611 30.0619 37.3819C29.7554 37.3911 29.6567 37.1804 29.6525 37.0884C29.6458 36.8743 29.8265 36.7755 29.9465 36.6795C30.1265 36.5814 30.398 36.4188 30.3792 35.8983C30.3599 35.2834 29.8502 34.75 29.1141 34.7743C28.5624 34.7928 27.7218 35.3116 27.7535 36.2621C27.7859 37.2441 28.7007 37.9795 30.0804 37.9329C30.8178 37.9077 32.4649 37.6082 34.0874 35.6792C35.9762 33.4676 36.5047 30.9329 36.9022 29.0775L37.346 26.6277C37.5916 26.6572 37.8557 26.6772 38.1423 26.6842C40.4948 26.7339 41.671 25.5158 41.6889 24.6292C41.701 24.0928 41.3374 23.5644 40.8277 23.577C40.4636 23.5871 40.0059 23.83 39.8965 24.3337C39.7886 24.8275 40.6448 25.2738 39.9757 25.7082C39.5005 26.0156 38.6488 26.2319 37.4488 26.0564L37.6668 24.8505C38.1121 22.5639 38.6614 19.7515 40.745 19.6827C40.8973 19.6755 41.4522 19.6891 41.4653 20.0569C41.4688 20.179 41.4384 20.2111 41.2948 20.4918C41.1483 20.7106 41.0933 20.8978 41.1005 21.1116C41.1203 21.6948 41.5641 22.079 42.2072 22.0567C43.0668 22.028 43.3134 21.1913 43.2993 20.7614C43.2631 19.7502 42.198 19.1116 40.7894 19.1582Z" fill="white"/>
<path d="M39.8735 47.5656C41.2755 47.5656 42.2163 48.579 42.2163 49.9804C42.2163 51.3017 41.2577 52.3958 39.8735 52.3958C38.4807 52.3958 37.5215 51.3017 37.5215 49.9804C37.5218 48.579 38.4624 47.5656 39.8735 47.5656ZM39.8735 51.7087C40.8681 51.7087 41.3114 50.8042 41.3114 49.9804C41.3114 49.1035 40.7782 48.253 39.8735 48.253C38.9604 48.253 38.4265 49.1035 38.4265 49.9804C38.4267 50.8042 38.8696 51.7087 39.8735 51.7087Z" fill="#C0C0C0"/>
<path d="M37.4052 47.9948V47.6738H36.1839V47.2354C36.1839 46.6114 36.2743 46.1403 37.0067 46.1403C37.0208 46.1403 37.0347 46.1413 37.0488 46.1418C37.0502 46.1418 37.0502 46.1399 37.0522 46.1399C37.2547 46.1549 37.424 45.9891 37.4356 45.7859L37.4507 45.5074C37.2787 45.48 37.0973 45.4527 36.8807 45.4527C35.6238 45.4527 35.3342 46.1856 35.3342 47.3077V47.6738H34.2483V48.0319C34.2757 48.2176 34.4349 48.3606 34.6287 48.3606C34.6297 48.3606 34.6307 48.3616 34.6317 48.3616H35.3342V52.2871H35.8027C35.8037 52.2871 35.8032 52.2866 35.8042 52.2866C35.9985 52.2866 36.1582 52.1411 36.1842 51.9535V48.3614H37.0347C37.2354 48.355 37.396 48.195 37.4052 47.9948Z" fill="#C0C0C0"/>
<path d="M26.0795 47.6738C26.0777 47.6738 26.077 47.6748 26.075 47.6748C25.8955 47.6748 25.722 47.798 25.6465 47.9644L24.4762 51.4916H24.4582L23.3139 47.9663C23.2391 47.799 23.0646 47.6748 22.8844 47.6748C22.8827 47.6748 22.8819 47.6738 22.88 47.6738H22.2871L23.852 51.9797C23.9067 52.1334 24.0151 52.3688 24.0151 52.4681C24.0151 52.5584 23.7616 53.6079 23.0015 53.6079C22.9827 53.6079 22.9639 53.6059 22.945 53.6045C22.7512 53.5938 22.6047 53.7292 22.572 53.9376L22.549 54.2319C22.7027 54.2589 22.8569 54.2953 23.1285 54.2953C24.2498 54.2953 24.5847 53.2728 24.9012 52.3866L26.602 47.6735H26.0795V47.6738Z" fill="#C0C0C0"/>
<path d="M20.674 48.6111C19.9715 48.252 19.2035 48.0077 19.1899 47.2851C19.1921 46.5168 19.8975 46.3153 20.4413 46.3163C20.4436 46.3158 20.446 46.3158 20.447 46.3158C20.6832 46.3158 20.872 46.3391 21.0562 46.3797C21.0589 46.3797 21.0584 46.3767 21.0614 46.3767C21.2562 46.3908 21.4196 46.2384 21.4428 46.0465L21.4582 45.7676C21.102 45.6792 20.7292 45.6342 20.4052 45.6342C19.2228 45.6413 18.3453 46.2366 18.3423 47.3713C18.3438 48.3639 19.0129 48.748 19.7319 49.0968C20.4376 49.4356 21.2101 49.7161 21.2168 50.5347C21.2124 51.3894 20.3881 51.7047 19.8198 51.7054C19.4874 51.7045 19.1265 51.6213 18.8228 51.5255C18.6322 51.4941 18.476 51.6624 18.4515 51.8847L18.4257 52.1332C18.8436 52.2686 19.272 52.3859 19.7027 52.3859C19.7027 52.3859 19.7032 52.3859 19.704 52.3859C19.7052 52.3859 19.7062 52.3859 19.7082 52.3859C21.0324 52.3762 22.0614 51.8483 22.0653 50.4772C22.0634 49.4191 21.3901 48.9752 20.674 48.6111Z" fill="#C0C0C0"/>
<path d="M33.5347 52.2874C33.5351 52.2874 33.5351 52.2869 33.5356 52.2869C33.7193 52.2869 33.872 52.1587 33.9114 51.9861V49.3297C33.9114 48.3255 33.4864 47.5656 32.3097 47.5656C31.8938 47.5656 31.1978 47.801 30.8812 48.4614C30.6366 47.8369 30.1032 47.5656 29.5696 47.5656C28.8908 47.5656 28.4297 47.8097 28.1045 48.3436H28.0861V48.0569C28.0832 47.8455 27.9126 47.675 27.7007 47.675C27.6993 47.675 27.6983 47.674 27.6968 47.674H27.2899V52.2876H27.7502C27.7507 52.2876 27.7507 52.2871 27.7512 52.2871C27.9644 52.2871 28.1371 52.1146 28.1371 51.9017C28.1371 51.896 28.1391 51.8936 28.1403 51.8896V49.9631C28.1403 49.1035 28.4837 48.2532 29.352 48.2532C30.0394 48.2532 30.1757 48.9678 30.1757 49.5376V52.2874H30.6423C30.6428 52.2874 30.6428 52.2869 30.6438 52.2869C30.8448 52.2869 31.0079 52.1327 31.0257 51.9364V49.9629C31.0257 49.1032 31.3696 48.253 32.2376 48.253C32.925 48.253 33.0609 48.9676 33.0609 49.5374V52.2871L33.5347 52.2874Z" fill="#C0C0C0"/>
<path d="M46.6743 52.2874C46.6752 52.2874 46.6752 52.2869 46.6757 52.2869C46.8827 52.2869 47.05 52.1235 47.0597 51.9191V49.5468C47.0597 48.3077 46.5255 47.5656 45.3314 47.5656C44.6894 47.5656 44.075 47.8822 43.821 48.4072H43.8032V48.0624C43.8032 48.0619 43.8022 48.0619 43.8022 48.0609C43.8022 47.8478 43.6297 47.6745 43.4168 47.6745C43.4149 47.6745 43.4139 47.6735 43.4124 47.6735H42.9792V52.2871H43.4468C43.4468 52.2871 43.4468 52.2866 43.4478 52.2866C43.6498 52.2866 43.8141 52.13 43.8302 51.9317V50.1522C43.8302 49.0312 44.2649 48.2527 45.2322 48.2527C45.9743 48.2983 46.2087 48.8228 46.2087 49.8988V52.2869H46.6743V52.2874Z" fill="#C0C0C0"/>
<path d="M51.2515 47.6738C51.25 47.6738 51.2495 47.6748 51.247 47.6748C51.0681 47.6748 50.8941 47.798 50.8188 47.9644L49.6493 51.4916H49.6304L48.4861 47.9663C48.4111 47.799 48.2366 47.6748 48.0564 47.6748C48.055 47.6748 48.054 47.6738 48.0525 47.6738H47.4597L49.0245 51.9797C49.0787 52.1334 49.1879 52.3688 49.1879 52.4681C49.1879 52.5584 48.9342 53.6079 48.174 53.6079C48.1552 53.6079 48.1364 53.6059 48.1173 53.6045C47.924 53.5938 47.7775 53.7292 47.7446 53.9376L47.7218 54.2319C47.8755 54.2589 48.0297 54.2953 48.3005 54.2953C49.4225 54.2953 49.7572 53.2728 50.0738 52.3866L51.7745 47.6735H51.2515V47.6738Z" fill="#C0C0C0"/>
</svg>
