<svg width="70" height="70" viewBox="0 0 70 70" fill="none" xmlns="http://www.w3.org/2000/svg">
<path fill-rule="evenodd" clip-rule="evenodd" d="M35 52.8953C44.8833 52.8953 52.8953 44.8833 52.8953 35C52.8953 25.1167 44.8833 17.1047 35 17.1047C25.1167 17.1047 17.1047 25.1167 17.1047 35C17.1047 44.8833 25.1167 52.8953 35 52.8953ZM35 54C45.4934 54 54 45.4934 54 35C54 24.5066 45.4934 16 35 16C24.5066 16 16 24.5066 16 35C16 45.4934 24.5066 54 35 54Z" fill="#A4A4A4"/>
<path d="M33.5271 31.9806L36.1047 32.8643V46.1202H33.5271V31.9806Z" fill="#A4A4A4"/>
<path fill-rule="evenodd" clip-rule="evenodd" d="M36.7 31.3146C35.773 30.9953 34.903 30.5682 34.2245 30.1743L34.2076 30.1645L34.1911 30.1541C31.2465 28.3028 29.88 28.6622 29.2951 29.0893C28.577 29.6137 28.2403 30.757 28.2614 31.6982L26.0526 31.7475C26.0245 30.4917 26.4243 28.4499 27.9922 27.3051C29.6902 26.0652 32.1535 26.2682 35.3499 28.273C35.927 28.6068 36.6597 28.964 37.4194 29.2257C38.1983 29.494 38.9337 29.6367 39.5309 29.6028C40.1035 29.5703 40.4611 29.3869 40.6942 29.0745C40.9543 28.7258 41.2073 28.0201 41.1149 26.6418L43.3192 26.4939C43.4293 28.135 43.1683 29.4529 42.465 30.3956C41.7345 31.3747 40.6791 31.7505 39.6561 31.8085C38.6577 31.8652 37.6149 31.6297 36.7 31.3146Z" fill="#A4A4A4"/>
</svg>
