<svg width="99" height="30" viewBox="0 0 99 30" fill="none" xmlns="http://www.w3.org/2000/svg">
<path d="M36.828 10.48L40.068 18.232L43.308 10.48H43.956L40.368 19H39.78L36.18 10.48H36.828ZM45.1285 10.24H45.7405V17.764C45.7405 18.052 45.8005 18.252 45.9205 18.364C46.0405 18.468 46.1965 18.52 46.3885 18.52C46.5165 18.52 46.6485 18.508 46.7845 18.484C46.9205 18.46 47.0405 18.428 47.1445 18.388L47.2645 18.88C47.1285 18.928 46.9605 18.972 46.7605 19.012C46.5605 19.052 46.3885 19.072 46.2445 19.072C45.9085 19.072 45.6365 18.972 45.4285 18.772C45.2285 18.564 45.1285 18.288 45.1285 17.944V10.24ZM47.67 17.2C47.67 16.824 47.782 16.5 48.006 16.228C48.23 15.948 48.538 15.732 48.93 15.58C49.322 15.42 49.774 15.34 50.286 15.34C50.606 15.34 50.938 15.368 51.282 15.424C51.626 15.48 51.934 15.556 52.206 15.652V15.064C52.206 14.488 52.038 14.028 51.702 13.684C51.374 13.34 50.918 13.168 50.334 13.168C50.022 13.168 49.698 13.232 49.362 13.36C49.026 13.488 48.682 13.672 48.33 13.912L48.078 13.48C48.486 13.208 48.878 13.004 49.254 12.868C49.638 12.724 50.018 12.652 50.394 12.652C51.138 12.652 51.726 12.872 52.158 13.312C52.59 13.752 52.806 14.352 52.806 15.112V18.208C52.806 18.304 52.826 18.376 52.866 18.424C52.914 18.472 52.982 18.5 53.07 18.508V19C52.998 19.008 52.938 19.012 52.89 19.012C52.842 19.012 52.802 19.012 52.77 19.012C52.618 18.988 52.498 18.924 52.41 18.82C52.33 18.716 52.286 18.6 52.278 18.472V17.98C51.99 18.34 51.618 18.62 51.162 18.82C50.714 19.02 50.242 19.12 49.746 19.12C49.354 19.12 48.998 19.036 48.678 18.868C48.366 18.7 48.118 18.472 47.934 18.184C47.758 17.888 47.67 17.56 47.67 17.2ZM51.966 17.716C52.046 17.612 52.106 17.512 52.146 17.416C52.186 17.32 52.206 17.232 52.206 17.152V16.12C51.918 16.008 51.618 15.924 51.306 15.868C50.994 15.812 50.674 15.784 50.346 15.784C49.722 15.784 49.214 15.908 48.822 16.156C48.438 16.404 48.246 16.74 48.246 17.164C48.246 17.428 48.314 17.672 48.45 17.896C48.586 18.12 48.774 18.3 49.014 18.436C49.262 18.572 49.546 18.64 49.866 18.64C50.314 18.64 50.726 18.556 51.102 18.388C51.486 18.212 51.774 17.988 51.966 17.716ZM54.1993 15.892C54.1993 15.308 54.3233 14.772 54.5713 14.284C54.8193 13.796 55.1593 13.404 55.5913 13.108C56.0233 12.804 56.5153 12.652 57.0673 12.652C57.6113 12.652 58.0913 12.796 58.5073 13.084C58.9313 13.372 59.2633 13.716 59.5033 14.116V10.24H60.1033V18.208C60.1033 18.304 60.1233 18.376 60.1633 18.424C60.2113 18.472 60.2753 18.5 60.3553 18.508V19C60.2273 19.016 60.1313 19.02 60.0673 19.012C59.9233 18.988 59.8033 18.92 59.7073 18.808C59.6113 18.696 59.5633 18.576 59.5633 18.448V17.752C59.3073 18.168 58.9633 18.5 58.5313 18.748C58.0993 18.996 57.6553 19.12 57.1993 19.12C56.7673 19.12 56.3673 19.032 55.9993 18.856C55.6313 18.672 55.3113 18.428 55.0393 18.124C54.7753 17.82 54.5673 17.476 54.4153 17.092C54.2713 16.708 54.1993 16.308 54.1993 15.892ZM59.5033 16.9V14.848C59.3913 14.544 59.2113 14.268 58.9633 14.02C58.7153 13.764 58.4353 13.564 58.1233 13.42C57.8113 13.268 57.5033 13.192 57.1993 13.192C56.8393 13.192 56.5113 13.268 56.2153 13.42C55.9273 13.572 55.6753 13.776 55.4593 14.032C55.2513 14.288 55.0913 14.58 54.9793 14.908C54.8673 15.228 54.8113 15.56 54.8113 15.904C54.8113 16.256 54.8753 16.596 55.0033 16.924C55.1313 17.244 55.3073 17.532 55.5313 17.788C55.7633 18.036 56.0273 18.232 56.3233 18.376C56.6273 18.512 56.9553 18.58 57.3073 18.58C57.5233 18.58 57.7513 18.536 57.9913 18.448C58.2393 18.36 58.4713 18.24 58.6873 18.088C58.9113 17.928 59.0953 17.748 59.2393 17.548C59.3913 17.34 59.4793 17.124 59.5033 16.9Z" fill="#383838"/>
<path d="M66.116 19V10.48H69.62C69.98 10.48 70.308 10.556 70.604 10.708C70.908 10.86 71.172 11.064 71.396 11.32C71.62 11.568 71.792 11.848 71.912 12.16C72.04 12.472 72.104 12.792 72.104 13.12C72.104 13.576 72 14.008 71.792 14.416C71.592 14.816 71.312 15.144 70.952 15.4C70.6 15.656 70.18 15.784 69.692 15.784H66.728V19H66.116ZM66.728 15.22H69.668C70.044 15.22 70.368 15.12 70.64 14.92C70.912 14.72 71.12 14.46 71.264 14.14C71.408 13.82 71.48 13.48 71.48 13.12C71.48 12.744 71.392 12.4 71.216 12.088C71.048 11.768 70.82 11.512 70.532 11.32C70.252 11.128 69.94 11.032 69.596 11.032H66.728V15.22ZM72.8145 17.2C72.8145 16.824 72.9265 16.5 73.1505 16.228C73.3745 15.948 73.6825 15.732 74.0745 15.58C74.4665 15.42 74.9185 15.34 75.4305 15.34C75.7505 15.34 76.0825 15.368 76.4265 15.424C76.7705 15.48 77.0785 15.556 77.3505 15.652V15.064C77.3505 14.488 77.1825 14.028 76.8465 13.684C76.5185 13.34 76.0625 13.168 75.4785 13.168C75.1665 13.168 74.8425 13.232 74.5065 13.36C74.1705 13.488 73.8265 13.672 73.4745 13.912L73.2225 13.48C73.6305 13.208 74.0225 13.004 74.3985 12.868C74.7825 12.724 75.1625 12.652 75.5385 12.652C76.2825 12.652 76.8705 12.872 77.3025 13.312C77.7345 13.752 77.9505 14.352 77.9505 15.112V18.208C77.9505 18.304 77.9705 18.376 78.0105 18.424C78.0585 18.472 78.1265 18.5 78.2145 18.508V19C78.1425 19.008 78.0825 19.012 78.0345 19.012C77.9865 19.012 77.9465 19.012 77.9145 19.012C77.7625 18.988 77.6425 18.924 77.5545 18.82C77.4745 18.716 77.4305 18.6 77.4225 18.472V17.98C77.1345 18.34 76.7625 18.62 76.3065 18.82C75.8585 19.02 75.3865 19.12 74.8905 19.12C74.4985 19.12 74.1425 19.036 73.8225 18.868C73.5105 18.7 73.2625 18.472 73.0785 18.184C72.9025 17.888 72.8145 17.56 72.8145 17.2ZM77.1105 17.716C77.1905 17.612 77.2505 17.512 77.2905 17.416C77.3305 17.32 77.3505 17.232 77.3505 17.152V16.12C77.0625 16.008 76.7625 15.924 76.4505 15.868C76.1385 15.812 75.8185 15.784 75.4905 15.784C74.8665 15.784 74.3585 15.908 73.9665 16.156C73.5825 16.404 73.3905 16.74 73.3905 17.164C73.3905 17.428 73.4585 17.672 73.5945 17.896C73.7305 18.12 73.9185 18.3 74.1585 18.436C74.4065 18.572 74.6905 18.64 75.0105 18.64C75.4585 18.64 75.8705 18.556 76.2465 18.388C76.6305 18.212 76.9185 17.988 77.1105 17.716ZM84.8758 19H84.2758V15.52C84.2758 14.72 84.1598 14.136 83.9278 13.768C83.7038 13.392 83.3438 13.204 82.8478 13.204C82.4958 13.204 82.1478 13.288 81.8038 13.456C81.4678 13.624 81.1718 13.856 80.9158 14.152C80.6678 14.44 80.4878 14.768 80.3758 15.136V19H79.7758V12.76H80.3398V14.248C80.5078 13.928 80.7318 13.652 81.0118 13.42C81.2918 13.18 81.6038 12.992 81.9478 12.856C82.2918 12.72 82.6478 12.652 83.0158 12.652C83.3598 12.652 83.6478 12.716 83.8798 12.844C84.1198 12.964 84.3118 13.14 84.4558 13.372C84.6078 13.604 84.7158 13.892 84.7798 14.236C84.8438 14.58 84.8758 14.972 84.8758 15.412V19ZM89.3059 19.12C88.8659 19.12 88.4579 19.036 88.0819 18.868C87.7139 18.7 87.3939 18.468 87.1219 18.172C86.8499 17.868 86.6379 17.52 86.4859 17.128C86.3339 16.736 86.2579 16.324 86.2579 15.892C86.2579 15.452 86.3339 15.04 86.4859 14.656C86.6379 14.264 86.8499 13.92 87.1219 13.624C87.4019 13.32 87.7259 13.084 88.0939 12.916C88.4699 12.74 88.8739 12.652 89.3059 12.652C89.7379 12.652 90.1379 12.74 90.5059 12.916C90.8739 13.084 91.1979 13.32 91.4779 13.624C91.7579 13.92 91.9739 14.264 92.1259 14.656C92.2779 15.04 92.3539 15.452 92.3539 15.892C92.3539 16.324 92.2779 16.736 92.1259 17.128C91.9739 17.52 91.7579 17.868 91.4779 18.172C91.2059 18.468 90.8819 18.7 90.5059 18.868C90.1379 19.036 89.7379 19.12 89.3059 19.12ZM86.8579 15.916C86.8579 16.404 86.9659 16.852 87.1819 17.26C87.4059 17.66 87.7019 17.98 88.0699 18.22C88.4379 18.46 88.8459 18.58 89.2939 18.58C89.7419 18.58 90.1499 18.46 90.5179 18.22C90.8939 17.972 91.1899 17.644 91.4059 17.236C91.6299 16.82 91.7419 16.368 91.7419 15.88C91.7419 15.392 91.6299 14.944 91.4059 14.536C91.1899 14.128 90.8939 13.804 90.5179 13.564C90.1499 13.316 89.7459 13.192 89.3059 13.192C88.8579 13.192 88.4499 13.316 88.0819 13.564C87.7139 13.812 87.4179 14.14 87.1939 14.548C86.9699 14.956 86.8579 15.412 86.8579 15.916ZM95.4888 19L92.8848 12.76H93.5208L95.8128 18.364L98.1168 12.76H98.7168L96.1128 19H95.4888Z" fill="#383838"/>
<mask id="path-3-inside-1_412_412" fill="white">
<path d="M0 0H30V29.9632H0V0Z"/>
</mask>
<path d="M0 0V-2H-2V0H0ZM30 0H32V-2H30V0ZM30 29.9632V31.9632H32V29.9632H30ZM0 29.9632H-2V31.9632H0V29.9632ZM0 2H30V-2H0V2ZM28 0V29.9632H32V0H28ZM30 27.9632H0V31.9632H30V27.9632ZM2 29.9632V0H-2V29.9632H2Z" fill="#383838" mask="url(#path-3-inside-1_412_412)"/>
<path d="M10.8954 12.9405L8.63226 6.51245H6.9231L10.1057 14.8712H11.6734L14.8442 6.51245H13.135L10.8954 12.9405Z" fill="#383838"/>
<path fill-rule="evenodd" clip-rule="evenodd" d="M11.0016 23.4067C10.3886 23.4067 9.83067 23.2889 9.32775 23.0535C8.83268 22.818 8.4044 22.5002 8.04292 22.0999C7.6893 21.6917 7.41426 21.2365 7.21781 20.7342C7.02135 20.2241 6.92312 19.7021 6.92312 19.1684C6.92312 18.6112 7.02528 18.0814 7.2296 17.5791C7.43391 17.0689 7.72074 16.6176 8.09007 16.2252C8.45941 15.8249 8.89161 15.511 9.38668 15.2834C9.88961 15.0479 10.4397 14.9302 11.0369 14.9302C11.642 14.9302 12.1921 15.0518 12.6871 15.2951C13.1901 15.5384 13.6183 15.8642 13.972 16.2723C14.3334 16.6804 14.6085 17.1396 14.7971 17.6497C14.9935 18.152 15.0918 18.6661 15.0918 19.192C15.0918 19.7414 14.9896 20.2711 14.7853 20.7813C14.581 21.2836 14.2942 21.7349 13.9248 22.1352C13.5633 22.5276 13.1311 22.8376 12.6282 23.0653C12.1331 23.2929 11.5909 23.4067 11.0016 23.4067ZM8.85625 20.5341C8.66765 20.1103 8.57335 19.655 8.57335 19.1684C8.57335 18.7132 8.66765 18.2737 8.85625 17.8499C9.04485 17.4182 9.31989 17.065 9.68137 16.7903C10.0428 16.5156 10.4868 16.3782 11.0133 16.3782C11.5163 16.3782 11.9485 16.5117 12.31 16.7785C12.6793 17.0375 12.9622 17.3789 13.1586 17.8028C13.3551 18.2266 13.4533 18.6818 13.4533 19.1684C13.4533 19.6236 13.359 20.0671 13.1704 20.4988C12.9818 20.9304 12.7068 21.2836 12.3453 21.5583C11.9838 21.833 11.5398 21.9704 11.0133 21.9704C10.5026 21.9704 10.0625 21.8369 9.69315 21.5701C9.33168 21.3032 9.05271 20.9579 8.85625 20.5341Z" fill="#383838"/>
<path fill-rule="evenodd" clip-rule="evenodd" d="M16.3396 23.3478V14.989H19.8876C20.2726 14.989 20.6262 15.0675 20.9484 15.2245C21.2785 15.3815 21.5614 15.5934 21.7971 15.8602C22.0329 16.1271 22.2175 16.4253 22.3511 16.755C22.4847 17.0846 22.5515 17.4221 22.5515 17.7674C22.5515 18.2384 22.4415 18.6857 22.2215 19.1096C22.0014 19.5334 21.695 19.8787 21.3021 20.1456C20.917 20.4124 20.4651 20.5459 19.9465 20.5459H17.9662V23.3478H16.3396ZM19.8522 19.1213H17.9662V16.4136H19.7815C20.0722 16.4136 20.3316 16.5313 20.5594 16.7667C20.7873 17.0022 20.9013 17.3358 20.9013 17.7674C20.9013 18.1756 20.7991 18.5052 20.5948 18.7564C20.3984 18.9997 20.1508 19.1213 19.8522 19.1213Z" fill="#383838"/>
<path fill-rule="evenodd" clip-rule="evenodd" d="M18.9867 14.9301C18.3738 14.9301 17.8159 14.8124 17.3129 14.5769C16.8179 14.3414 16.3896 14.0236 16.0281 13.6233C15.6745 13.2152 15.3994 12.7599 15.203 12.2576C15.0065 11.7475 14.9083 11.2255 14.9083 10.6918C14.9083 10.1346 15.0105 9.6048 15.2148 9.10249C15.4191 8.59233 15.7059 8.14103 16.0752 7.7486C16.4446 7.34832 16.8768 7.03438 17.3719 6.80677C17.8748 6.57131 18.4249 6.45358 19.0221 6.45358C19.6272 6.45358 20.1773 6.57524 20.6723 6.81854C21.1752 7.06185 21.6035 7.38757 21.9571 7.7957C22.3186 8.20382 22.5937 8.66297 22.7823 9.17313C22.9787 9.67544 23.0769 10.1895 23.0769 10.7154C23.0769 11.2648 22.9748 11.7946 22.7705 12.3047C22.5662 12.807 22.2793 13.2583 21.91 13.6586C21.5485 14.051 21.1163 14.3611 20.6134 14.5887C20.1183 14.8163 19.5761 14.9301 18.9867 14.9301ZM16.8414 12.0575C16.6528 11.6337 16.5585 11.1784 16.5585 10.6918C16.5585 10.2366 16.6528 9.79709 16.8414 9.37327C17.03 8.94159 17.3051 8.58841 17.6665 8.3137C18.028 8.039 18.472 7.90165 18.9985 7.90165C19.5014 7.90165 19.9336 8.03508 20.2951 8.30193C20.6645 8.56094 20.9474 8.90235 21.1438 9.32617C21.3403 9.75 21.4385 10.2052 21.4385 10.6918C21.4385 11.1471 21.3442 11.5905 21.1556 12.0222C20.967 12.4538 20.692 12.807 20.3305 13.0817C19.969 13.3564 19.525 13.4938 18.9985 13.4938C18.4877 13.4938 18.0477 13.3604 17.6783 13.0935C17.3169 12.8267 17.0379 12.4813 16.8414 12.0575Z" fill="#383838"/>
</svg>
